<?xml version="1.0" encoding="UTF-8" standalone="no"?><svg xmlns="http://www.w3.org/2000/svg" xmlns:xlink="http://www.w3.org/1999/xlink" contentScriptType="application/ecmascript" contentStyleType="text/css" height="445px" preserveAspectRatio="none" style="width:437px;height:445px;background:#FFFFFF;" version="1.1" viewBox="0 0 437 445" width="437px" zoomAndPan="magnify"><defs><filter height="300%" id="f1xtyt0sbnl25r" width="300%" x="-1" y="-1"><feGaussianBlur result="blurOut" stdDeviation="2.0"/><feColorMatrix in="blurOut" result="blurOut2" type="matrix" values="0 0 0 0 0 0 0 0 0 0 0 0 0 0 0 0 0 0 .4 0"/><feOffset dx="4.0" dy="4.0" in="blurOut2" result="blurOut3"/><feBlend in="SourceGraphic" in2="blurOut3" mode="normal"/></filter></defs><g><polygon fill="#000000" filter="url(#f1xtyt0sbnl25r)" points="220.5552,22.4324,219.0894,24.4353,217.3556,27.3688,214.876,29.3458,212.2703,30.4269,210.1927,30.5207,207.5224,29.1687,205.0029,28.2854,203.0905,26.492,202.0873,24.4389,201.4924,22.8041,200.9096,20.6688,199.9636,18.8313,200.6906,17.0373,201.3275,15.072,203.7175,13.5177,205.3991,11.501,207.4804,10.8313,209.9547,10.2546,213.1276,10.5972,214.8655,11.4168,216.8861,11.7884,219.3429,14.3054,220.1993,16.9627,220.5714,18.7758,220.15,21.7635" style="stroke:none;stroke-width:1.0;"/><polygon fill="#F8F8F8" filter="url(#f1xtyt0sbnl25r)" points="192,50,192,50.0701,199.4,49.8619,206.8,50.0644,214.2,50.1332,221.6,49.7622,229,50,228.9901,49.9761,230.7134,50.6009,232.4866,51.3464,234.2946,52.1757,235.9829,52.716,237.8388,53.6612,238.0093,53.7318,238.377,55.3485,239.2424,57.1715,240.1686,59.0196,240.7414,60.7213,241.5,62.5,241.5227,62.5,241.4894,64.3266,241.5595,66.1531,241.5797,67.9797,241.6952,69.8063,241.5,71.6328,241.7067,71.7184,240.977,73.4872,240.1139,75.2008,239.4461,76.9952,238.7873,78.7935,237.8388,80.4716,237.7468,80.2496,236.1576,81.4128,234.2655,81.8448,232.6036,82.8327,230.7046,83.2481,229,84.1328,229,84.11,221.6,84.38,214.2,84.1166,206.8,84.1679,199.4,84.2457,192,84.1328,192.0531,84.261,190.2317,83.3994,188.5011,82.7568,186.6237,81.7598,184.9652,81.2915,183.1612,80.4716,183.33,80.5416,182.5658,78.7606,181.8855,77.0143,180.8157,75.1067,180.0314,73.3174,179.5,71.6328,179.2929,71.6328,179.4804,69.8063,179.4345,67.9797,179.7271,66.1531,179.4418,64.3266,179.5,62.5,179.3944,62.4562,180.3025,60.7614,180.7591,58.8794,181.5368,57.1305,182.6288,55.5117,183.1612,53.6612,183.2167,53.7953,185.0226,53.1551,186.6557,52.0976,188.5052,51.5628,190.3075,50.9141,192,50" style="stroke:#383838;stroke-width:1.5;"/><text fill="#000000" font-family="sans-serif" font-size="12" lengthAdjust="spacing" textLength="42" x="189.5" y="71.6016">编写IDL</text><polygon fill="#F8F8F8" filter="url(#f1xtyt0sbnl25r)" points="174.5,104.1328,174.5,104.343,184.7857,103.7185,195.0714,104.3261,205.3571,104.5325,215.6429,103.4194,225.9286,104.0551,236.2143,103.7063,246.5,104.1328,246.4511,104.0147,248.2591,104.8441,249.9473,105.3844,251.8739,106.5,253.4907,106.8676,255.3388,107.794,255.2779,107.7688,256.2041,109.6168,256.7769,111.3186,257.5565,113.106,258.2579,114.861,259,116.6328,259.0595,116.6328,259.0797,118.4594,259.1952,120.2859,259.2237,122.1125,259.2264,123.9391,259,125.7656,259.0784,125.7981,258.4105,127.5925,257.7518,129.3907,256.5812,130.9769,256.28,132.9232,255.3388,134.6045,255.301,134.5131,253.6392,135.5011,251.7402,135.9165,250.0268,136.7801,248.3624,137.7618,246.5,138.2656,246.5,138.2169,236.2143,138.3709,225.9286,138.6043,215.6429,138.6819,205.3571,138.2617,195.0714,138.5528,184.7857,137.6932,174.5,138.2656,174.5363,138.3532,172.8022,137.7022,171.0212,136.9381,169.2749,136.2577,167.3673,135.1879,165.6612,134.6045,165.4603,134.5213,164.7376,132.7574,164.1786,131.0614,163.4039,129.2761,162.9421,127.6203,162,125.7656,161.9418,125.7656,161.8856,123.9391,162.0761,122.1125,161.7777,120.2859,161.827,118.4594,162,116.6328,162.1999,116.7156,162.8664,114.9206,163.6907,113.191,164.0976,111.2885,165.0272,109.6025,165.6612,107.794,165.7365,107.9758,167.3687,106.9163,169.1845,106.3,170.9805,105.6361,172.8154,105.0658,174.5,104.1328" style="stroke:#383838;stroke-width:1.5;"/><text fill="#000000" font-family="sans-serif" font-size="12" lengthAdjust="spacing" textLength="77" x="172" y="125.7344">Github Action</text><path d="M68,158.2656 L68,158.5459 L77.875,157.7132 L87.75,158.5233 L97.625,158.7985 L107.5,157.3144 L117.375,158.162 L127.25,157.697 L137.125,157.7543 L147,158.1747 L156.875,157.3438 L166.75,159.0038 L176.625,157.4253 L186.5,158.0019 L196.375,158.8416 L206.25,158.1513 L216.125,158.3566 L226,158.223 L235.875,158.5037 L245.75,158.5845 L255.625,159.0465 L265.5,159.1604 L275.375,159.1713 L285.25,158.6051 L295.125,158.8837 L305,159.2019 L314.875,157.304 L324.75,159.1703 L334.625,157.8703 L344.5,158.2656 " fill="none" style="stroke:#383838;stroke-width:1.5;"/><polygon fill="#F8F8F8" filter="url(#f1xtyt0sbnl25r)" points="23.5,199.4648,23.5,199.675,33.3889,199.0505,43.2778,199.6581,53.1667,199.8645,63.0556,198.7514,72.9444,199.3871,82.8333,199.0384,92.7222,199.0813,102.6111,199.3967,112.5,199.4648,112.4118,199.2519,114.3384,200.3676,115.9551,200.7352,117.7781,201.6006,119.6262,202.5268,121.3388,203.126,121.3124,203.1151,122.0921,204.9025,122.7935,206.6575,123.5905,208.4521,124.3414,210.2276,125,211.9648,125.5857,211.9648,125.6711,222.2711,125.6793,232.5773,125.2546,242.8836,125.4636,253.1898,125,263.4961,125.2163,263.5857,124.0457,265.1719,123.7445,267.1182,122.712,268.7616,122.2355,270.6353,121.3388,272.3349,121.2757,272.1825,119.5623,273.0461,117.8979,274.0278,116.0293,274.5166,114.2812,275.2963,112.5,275.9961,112.5,276.3347,102.6111,276.4123,92.7222,275.9922,82.8333,276.2833,72.9444,275.4237,63.0556,276.2805,53.1667,276.5443,43.2778,276.4406,33.3889,276.6091,23.5,275.9961,23.4384,275.8473,21.649,275.063,19.8852,274.3403,18.1892,273.7813,16.4039,273.0066,14.6612,272.3349,14.871,272.4219,13.8751,270.5449,13.0911,268.7556,12.5348,267.0607,11.5269,265.1788,11,263.4961,10.4809,263.4961,11.649,253.1898,11.4357,242.8836,11.7345,232.5773,10.6782,222.2711,11,211.9648,11.0983,212.0056,11.9141,210.2724,12.319,208.369,13.1672,206.6493,13.9677,204.9098,14.6612,203.126,14.7443,203.3267,16.4284,202.3925,18.2557,201.804,19.8938,200.7588,21.6458,199.9885,23.5,199.4648" style="stroke:#383838;stroke-width:1.5;"/><text fill="#000000" font-family="sans-serif" font-size="12" font-weight="bold" lengthAdjust="spacing" textLength="26" x="21" y="221.0664">Java</text><text fill="#000000" font-family="sans-serif" font-size="12" lengthAdjust="spacing" textLength="94" x="21" y="235.1992">- ProtoBuf types</text><text fill="#000000" font-family="sans-serif" font-size="12" lengthAdjust="spacing" textLength="81" x="21" y="249.332">- gRPC server</text><text fill="#000000" font-family="sans-serif" font-size="12" lengthAdjust="spacing" textLength="75" x="21" y="263.4648">- gRPC client</text><polygon fill="#F8F8F8" filter="url(#f1xtyt0sbnl25r)" points="27,310.9961,27,311.2063,37.25,310.5818,47.5,311.1894,57.75,311.3958,68,310.2827,78.25,310.9184,88.5,310.5696,98.75,310.6126,109,310.9961,108.9913,310.9751,110.6796,311.5154,112.6062,312.6311,114.2229,312.9987,116.0458,313.8641,117.8388,314.6573,117.9719,314.7124,118.5447,316.4141,119.3243,318.2015,120.0257,319.9565,120.8227,321.7511,121.5,323.4961,121.5797,323.4961,121.6952,325.3227,121.7237,327.1492,121.7264,328.9758,121.5849,330.8023,121.5,332.6289,121.6428,332.688,120.984,334.4863,119.8134,336.0724,119.5123,338.0188,118.4798,339.6622,117.8388,341.4677,117.9069,341.6321,116.0079,342.0475,114.2946,342.9111,112.6301,343.8928,110.7616,344.3817,109,345.1289,109,345.2342,98.75,345.4675,88.5,345.5451,78.25,345.125,68,345.4161,57.75,344.5565,47.5,345.4133,37.25,345.6771,27,345.1289,27.0567,345.2658,25.3104,344.5855,23.4028,343.5157,21.6135,342.7314,19.8497,342.0086,18.1612,341.4677,18.143,341.4602,17.3684,339.6749,16.9065,338.0191,15.9107,336.1422,15.1266,334.3529,14.5,332.6289,14.5761,332.6289,14.2777,330.8023,14.327,328.9758,14.7163,327.1492,14.6452,325.3227,14.5,323.4961,14.7262,323.5898,15.1331,321.6873,16.0628,320.0013,16.8785,318.2681,17.2835,316.3648,18.1612,314.6573,18.1489,314.6277,19.945,313.9638,21.7798,313.3935,23.4639,312.4593,25.2912,311.8708,27,310.9961" style="stroke:#383838;stroke-width:1.5;"/><text fill="#000000" font-family="sans-serif" font-size="12" lengthAdjust="spacing" textLength="87" x="24.5" y="332.5977">Maven Registry</text><polygon fill="#F8F8F8" filter="url(#f1xtyt0sbnl25r)" points="147.5,199.4648,147.5,199.675,157.3889,199.0505,167.2778,199.6581,177.1667,199.8645,187.0556,198.7514,196.9444,199.3871,206.8333,199.0384,216.7222,199.0813,226.6111,199.3967,236.5,199.4648,236.4118,199.2519,238.3384,200.3676,239.9551,200.7352,241.7781,201.6006,243.6262,202.5268,245.3388,203.126,245.3124,203.1151,246.0921,204.9025,246.7935,206.6575,247.5905,208.4521,248.3414,210.2276,249,211.9648,249.5857,211.9648,249.6711,222.2711,249.6793,232.5773,249.2546,242.8836,249.4636,253.1898,249,263.4961,249.2163,263.5857,248.0457,265.1719,247.7445,267.1182,246.712,268.7616,246.2355,270.6353,245.3388,272.3349,245.2757,272.1825,243.5623,273.0461,241.8979,274.0278,240.0293,274.5166,238.2812,275.2963,236.5,275.9961,236.5,276.3347,226.6111,276.4123,216.7222,275.9922,206.8333,276.2833,196.9444,275.4237,187.0556,276.2805,177.1667,276.5443,167.2778,276.4406,157.3889,276.6091,147.5,275.9961,147.4384,275.8473,145.649,275.063,143.8852,274.3403,142.1892,273.7813,140.4039,273.0066,138.6612,272.3349,138.871,272.4219,137.8751,270.5449,137.0911,268.7556,136.5348,267.0607,135.5269,265.1788,135,263.4961,134.4809,263.4961,135.649,253.1898,135.4357,242.8836,135.7345,232.5773,134.6782,222.2711,135,211.9648,135.0983,212.0056,135.9141,210.2724,136.319,208.369,137.1672,206.6493,137.9677,204.9098,138.6612,203.126,138.7443,203.3267,140.4284,202.3925,142.2557,201.804,143.8938,200.7588,145.6458,199.9885,147.5,199.4648" style="stroke:#383838;stroke-width:1.5;"/><text fill="#000000" font-family="sans-serif" font-size="12" font-weight="bold" lengthAdjust="spacing" textLength="32" x="145" y="221.0664">Node</text><text fill="#000000" font-family="sans-serif" font-size="12" lengthAdjust="spacing" textLength="94" x="145" y="235.1992">- ProtoBuf types</text><text fill="#000000" font-family="sans-serif" font-size="12" lengthAdjust="spacing" textLength="81" x="145" y="249.332">- gRPC server</text><text fill="#000000" font-family="sans-serif" font-size="12" lengthAdjust="spacing" textLength="75" x="145" y="263.4648">- gRPC client</text><polygon fill="#F8F8F8" filter="url(#f1xtyt0sbnl25r)" points="156.5,310.9961,156.5,311.2063,166.6429,310.5818,176.7857,311.1894,186.9286,311.3958,197.0714,310.2827,207.2143,310.9184,217.3571,310.5696,227.5,310.9961,227.4511,310.878,229.2591,311.7073,230.9473,312.2476,232.8739,313.3633,234.4907,313.7309,236.3388,314.6573,236.2779,314.632,237.2041,316.4801,237.7769,318.1819,238.5565,319.9693,239.2579,321.7243,240,323.4961,240.0595,323.4961,240.0797,325.3227,240.1952,327.1492,240.2237,328.9758,240.2264,330.8023,240,332.6289,240.0784,332.6614,239.4105,334.4558,238.7518,336.254,237.5812,337.8402,237.28,339.7865,236.3388,341.4677,236.301,341.3764,234.6392,342.3644,232.7402,342.7798,231.0268,343.6433,229.3624,344.6251,227.5,345.1289,227.5,345.0802,217.3571,345.2342,207.2143,345.4675,197.0714,345.5451,186.9286,345.125,176.7857,345.4161,166.6429,344.5565,156.5,345.1289,156.5363,345.2165,154.8022,344.5655,153.0212,343.8013,151.2749,343.121,149.3673,342.0512,147.6612,341.4677,147.4603,341.3845,146.7376,339.6207,146.1786,337.9247,145.4039,336.1394,144.9421,334.4836,144,332.6289,143.9418,332.6289,143.8856,330.8023,144.0761,328.9758,143.7777,327.1492,143.827,325.3227,144,323.4961,144.1999,323.5789,144.8664,321.7839,145.6907,320.0543,146.0976,318.1517,147.0272,316.4657,147.6612,314.6573,147.7365,314.8391,149.3687,313.7795,151.1845,313.1633,152.9805,312.4994,154.8154,311.929,156.5,310.9961" style="stroke:#383838;stroke-width:1.5;"/><text fill="#000000" font-family="sans-serif" font-size="12" lengthAdjust="spacing" textLength="76" x="154" y="332.5977">NPM Registry</text><polygon fill="#F8F8F8" filter="url(#f1xtyt0sbnl25r)" points="281.5,178.2656,281.5,178.4758,291.1923,177.8513,300.8846,178.4589,310.5769,178.6653,320.2692,177.5522,329.9615,178.1879,339.6538,177.8391,349.3462,177.8821,359.0385,178.1975,368.7308,177.5743,378.4231,178.8193,388.1154,177.6353,397.8077,178.0679,407.5,178.2656,407.5551,178.3986,409.2568,178.9714,411.0442,179.7511,412.7992,180.4525,414.5938,181.2495,416.3388,181.9268,416.4125,181.9573,417.2514,183.7693,418.01,185.5479,418.7447,187.3167,419.3462,189.0303,420,190.7656,420.4636,190.7656,420.7022,201.2023,419.2788,211.6389,420.6785,222.0755,419.7035,232.5122,420.5338,242.9488,419.505,253.3854,419.9315,263.822,420.7416,274.2587,420,284.6953,419.985,284.6891,419.3002,286.4765,418.6398,288.274,417.9315,290.0517,417.0699,291.7659,416.3388,293.5341,416.3755,293.6226,414.498,294.0901,412.8396,295.0862,411.1055,295.8997,409.3245,296.6,407.5,297.1953,407.5,297.8083,397.8077,296.7122,388.1154,296.5431,378.4231,296.5739,368.7308,297.1364,359.0385,296.9988,349.3462,297.8767,339.6538,297.0206,329.9615,296.8523,320.2692,297.4236,310.5769,296.5285,300.8846,296.6762,291.1923,297.8443,281.5,297.1953,281.5556,297.3295,279.8259,296.6893,277.9234,295.6317,276.2374,295.0969,274.5042,294.4482,272.6612,293.5341,272.5157,293.4739,271.8994,291.7542,271.2355,290.0147,270.6652,288.314,269.7309,286.4625,269,284.6953,269.4626,284.6953,268.4462,274.2587,268.3227,263.822,269.5036,253.3854,268.2831,242.9488,269.509,232.5122,269.2066,222.0755,268.7321,211.6389,268.6462,201.2023,269,190.7656,269.1413,190.8241,269.6401,188.9597,270.6467,187.3056,271.0265,185.3918,272.1191,183.7733,272.6612,181.9268,272.7229,182.0759,274.4602,181.27,276.2027,180.4769,278.0572,179.9539,279.8105,179.1868,281.5,178.2656" style="stroke:#383838;stroke-width:1.5;"/><text fill="#000000" font-family="sans-serif" font-size="12" font-weight="bold" lengthAdjust="spacing" textLength="17" x="279" y="199.8672">Go</text><text fill="#000000" font-family="sans-serif" font-size="12" lengthAdjust="spacing" textLength="94" x="279" y="214">- ProtoBuf types</text><text fill="#000000" font-family="sans-serif" font-size="12" lengthAdjust="spacing" textLength="77" x="279" y="228.1328">- HTTP client</text><text fill="#000000" font-family="sans-serif" font-size="12" lengthAdjust="spacing" textLength="64" x="279" y="242.2656">- API mock</text><text fill="#000000" font-family="sans-serif" font-size="12" lengthAdjust="spacing" textLength="131" x="279" y="256.3984">- grpc-gateway server</text><text fill="#000000" font-family="sans-serif" font-size="12" lengthAdjust="spacing" textLength="81" x="279" y="270.5313">- gRPC server</text><text fill="#000000" font-family="sans-serif" font-size="12" lengthAdjust="spacing" textLength="75" x="279" y="284.6641">- gRPC client</text><polygon fill="#F8F8F8" filter="url(#f1xtyt0sbnl25r)" points="295.5,332.1953,295.5,332.4055,305.3,331.781,315.1,332.3886,324.9,332.595,334.7,331.4819,344.5,332.1176,354.3,331.7688,364.1,331.8118,373.9,332.1272,383.7,331.5039,393.5,332.1953,393.5706,332.3658,395.1874,332.7334,397.0103,333.5989,398.8584,334.525,400.5601,335.0978,402.3388,335.8565,402.3598,335.8652,403.0612,337.6202,403.8583,339.4148,404.6092,341.1903,405.4481,343.0023,406,344.6953,406.2237,344.6953,406.2264,346.5219,406.0849,348.3484,406.1545,350.175,406.2341,352.0016,406,353.8281,405.7779,353.7361,405.4767,355.6824,404.4442,357.3258,403.9677,359.1995,402.9186,360.836,402.3388,362.667,402.3301,362.6459,400.6657,363.6276,398.7971,364.1164,397.049,364.8961,395.311,365.7002,393.5,366.3281,393.5,366.7444,383.7,366.3242,373.9,366.6153,364.1,365.7557,354.3,366.6125,344.5,366.8763,334.7,366.7727,324.9,366.9411,315.1,365.845,305.3,365.6759,295.5,366.3281,295.4207,366.1368,293.7247,365.5778,291.9394,364.8031,290.2836,364.3413,288.4067,363.3454,286.6612,362.667,286.5555,362.6232,285.9992,360.9283,284.9913,359.0464,284.3046,357.2974,283.9321,355.6787,283,353.8281,283.1452,353.8281,283.2448,352.0016,282.8927,350.175,283.1064,348.3484,283.1968,346.5219,283,344.6953,282.8545,344.6351,283.7027,342.9153,284.5033,341.1758,285.3974,339.4752,285.9276,337.6237,286.6612,335.8565,286.7202,335.9989,288.3583,334.9537,290.1103,334.1834,292.0287,333.8149,293.6408,332.7068,295.5,332.1953" style="stroke:#383838;stroke-width:1.5;"/><text fill="#000000" font-family="sans-serif" font-size="12" lengthAdjust="spacing" textLength="103" x="293" y="353.7969">Github Repository</text><path d="M68,386.3281 L68,386.6084 L77.875,385.7757 L87.75,386.5858 L97.625,386.861 L107.5,385.3769 L117.375,386.2245 L127.25,385.7595 L137.125,385.8168 L147,386.2372 L156.875,385.4063 L166.75,387.0663 L176.625,385.4878 L186.5,386.0644 L196.375,386.9041 L206.25,386.2138 L216.125,386.4191 L226,386.2855 L235.875,386.5662 L245.75,386.647 L255.625,387.109 L265.5,387.2229 L275.375,387.2338 L285.25,386.6676 L295.125,386.9462 L305,387.2644 L314.875,385.3665 L324.75,387.2328 L334.625,385.9328 L344.5,386.3281 " fill="none" style="stroke:#383838;stroke-width:1.5;"/><polygon fill="#FFFFFF" filter="url(#f1xtyt0sbnl25r)" points="221.5608,420.0038,219.9484,422.2069,218.0412,425.4338,215.3136,427.6085,212.4474,428.7977,210.162,428.9009,207.2247,427.4137,204.4532,426.442,202.3495,424.4693,201.2461,422.2109,200.5917,420.4127,199.9506,418.0638,198.91,416.0426,199.7096,414.0691,200.4102,411.9074,203.0393,410.1976,204.889,407.9792,207.1784,407.2426,209.9001,406.6082,213.3904,406.9851,215.3021,407.8867,217.5247,408.2953,220.2272,411.0641,221.1693,413.9871,221.5786,415.9815,221.115,419.268" style="stroke:#000000;stroke-width:1.0;"/><polygon fill="#000000" points="216.5331,418.7876,215.6536,419.9893,214.6134,421.7494,213.1256,422.9356,211.5622,423.5843,210.3156,423.6406,208.7135,422.8293,207.2017,422.2994,206.0543,421.2233,205.4524,419.9915,205.0955,419.0106,204.7458,417.7294,204.1782,416.6269,204.6143,415.5505,204.9965,414.3713,206.4305,413.4387,207.4394,412.2287,208.6882,411.8269,210.1728,411.4809,212.0766,411.6865,213.1193,412.1782,214.3317,412.4011,215.8057,413.9114,216.3196,415.5057,216.5429,416.5936,216.29,418.3862" style="stroke:#7F7F7F;stroke-width:1.0;"/><path d="M210.5,30 L210.5934,30 L210.3159,34 L210.5859,38 L210.6776,42 L210.1829,46 L210.5,50 " fill="#383838" style="stroke:#383838;stroke-width:1.5;"/><polygon fill="#383838" points="206.5,40,206.565,40.026,207.1718,41.9487,208.1598,44.0239,209.0237,46.0495,209.4792,47.9117,210.5,50,210.4759,49.9904,211.168,47.9472,211.9813,45.9525,212.8789,43.9916,213.486,41.9144,214.5,40,214.6305,40.1305,213.5514,40.6514,212.8534,41.5534,212.2018,42.5018,211.2798,43.1798,210.5,44,210.5161,44.0161,209.6925,43.1925,208.9421,42.4421,208.1564,41.6564,207.438,40.938,206.5,40" style="stroke:#383838;stroke-width:1.0;"/><path d="M210.5,84.1328 L210.5934,84.1328 L210.3159,88.1328 L210.5859,92.1328 L210.6776,96.1328 L210.1829,100.1328 L210.5,104.1328 " fill="#383838" style="stroke:#383838;stroke-width:1.5;"/><polygon fill="#383838" points="206.5,94.1328,206.565,94.1588,207.1718,96.0815,208.1598,98.1567,209.0237,100.1823,209.4792,102.0445,210.5,104.1328,210.4759,104.1232,211.168,102.08,211.9813,100.0853,212.8789,98.1244,213.486,96.0472,214.5,94.1328,214.6305,94.2633,213.5514,94.7843,212.8534,95.6862,212.2018,96.6346,211.2798,97.3126,210.5,98.1328,210.5161,98.1489,209.6925,97.3253,208.9421,96.5749,208.1564,95.7892,207.438,95.0709,206.5,94.1328" style="stroke:#383838;stroke-width:1.0;"/><path d="M68,275.9961 L68.0934,275.9961 L67.8159,282.9961 L68.0859,289.9961 L68.1776,296.9961 L67.6829,303.9961 L68,310.9961 " fill="#383838" style="stroke:#383838;stroke-width:1.5;"/><polygon fill="#383838" points="64,300.9961,64.065,301.0221,64.6718,302.9448,65.6598,305.02,66.5237,307.0456,66.9792,308.9078,68,310.9961,67.9759,310.9865,68.668,308.9433,69.4813,306.9486,70.3789,304.9877,70.986,302.9105,72,300.9961,72.1305,301.1266,71.0514,301.6475,70.3534,302.5495,69.7018,303.4979,68.7798,304.1759,68,304.9961,68.0161,305.0122,67.1925,304.1886,66.4421,303.4382,65.6564,302.6525,64.938,301.9341,64,300.9961" style="stroke:#383838;stroke-width:1.0;"/><path d="M192,275.9961 L192.0934,275.9961 L191.8159,282.9961 L192.0859,289.9961 L192.1776,296.9961 L191.6829,303.9961 L192,310.9961 " fill="#383838" style="stroke:#383838;stroke-width:1.5;"/><polygon fill="#383838" points="188,300.9961,188.065,301.0221,188.6718,302.9448,189.6598,305.02,190.5237,307.0456,190.9792,308.9078,192,310.9961,191.9759,310.9865,192.668,308.9433,193.4813,306.9486,194.3789,304.9877,194.986,302.9105,196,300.9961,196.1305,301.1266,195.0514,301.6475,194.3534,302.5495,193.7018,303.4979,192.7798,304.1759,192,304.9961,192.0161,305.0122,191.1925,304.1886,190.4421,303.4382,189.6564,302.6525,188.938,301.9341,188,300.9961" style="stroke:#383838;stroke-width:1.0;"/><path d="M344.5,297.1953 L344.5934,297.1953 L344.3159,304.1953 L344.5859,311.1953 L344.6776,318.1953 L344.1829,325.1953 L344.5,332.1953 " fill="#383838" style="stroke:#383838;stroke-width:1.5;"/><polygon fill="#383838" points="340.5,322.1953,340.565,322.2213,341.1718,324.144,342.1598,326.2192,343.0237,328.2448,343.4792,330.107,344.5,332.1953,344.4759,332.1857,345.168,330.1425,345.9813,328.1478,346.8789,326.1869,347.486,324.1097,348.5,322.1953,348.6305,322.3258,347.5514,322.8468,346.8534,323.7487,346.2018,324.6971,345.2798,325.3751,344.5,326.1953,344.5161,326.2114,343.6925,325.3878,342.9421,324.6374,342.1564,323.8517,341.438,323.1334,340.5,322.1953" style="stroke:#383838;stroke-width:1.0;"/><path d="M68,159.7656 L68.0934,159.7656 L67.8159,167.7055 L68.0859,175.6453 L68.1776,183.5852 L67.6829,191.525 L68,199.4648 " fill="#383838" style="stroke:#383838;stroke-width:1.5;"/><polygon fill="#383838" points="64,189.4648,64.065,189.4909,64.6718,191.4136,65.6598,193.4888,66.5237,195.5143,66.9792,197.3765,68,199.4648,67.9759,199.4552,68.668,197.412,69.4813,195.4174,70.3789,193.4564,70.986,191.3793,72,189.4648,72.1305,189.5953,71.0514,190.1163,70.3534,191.0182,69.7018,191.9667,68.7798,192.6446,68,193.4648,68.0161,193.4809,67.1925,192.6573,66.4421,191.9069,65.6564,191.1212,64.938,190.4029,64,189.4648" style="stroke:#383838;stroke-width:1.0;"/><path d="M192,159.7656 L192.0934,159.7656 L191.8159,167.7055 L192.0859,175.6453 L192.1776,183.5852 L191.6829,191.525 L192,199.4648 " fill="#383838" style="stroke:#383838;stroke-width:1.5;"/><polygon fill="#383838" points="188,189.4648,188.065,189.4909,188.6718,191.4136,189.6598,193.4888,190.5237,195.5143,190.9792,197.3765,192,199.4648,191.9759,199.4552,192.668,197.412,193.4813,195.4174,194.3789,193.4564,194.986,191.3793,196,189.4648,196.1305,189.5953,195.0514,190.1163,194.3534,191.0182,193.7018,191.9667,192.7798,192.6446,192,193.4648,192.0161,193.4809,191.1925,192.6573,190.4421,191.9069,189.6564,191.1212,188.938,190.4029,188,189.4648" style="stroke:#383838;stroke-width:1.0;"/><path d="M344.5,159.7656 L344.5934,159.7656 L344.3159,163.4656 L344.5859,167.1656 L344.6776,170.8656 L344.1829,174.5656 L344.5,178.2656 " fill="#383838" style="stroke:#383838;stroke-width:1.5;"/><polygon fill="#383838" points="340.5,168.2656,340.565,168.2916,341.1718,170.2143,342.1598,172.2896,343.0237,174.3151,343.4792,176.1773,344.5,178.2656,344.4759,178.256,345.168,176.2128,345.9813,174.2181,346.8789,172.2572,347.486,170.18,348.5,168.2656,348.6305,168.3961,347.5514,168.9171,346.8534,169.819,346.2018,170.7674,345.2798,171.4454,344.5,172.2656,344.5161,172.2817,343.6925,171.4581,342.9421,170.7077,342.1564,169.922,341.438,169.2037,340.5,168.2656" style="stroke:#383838;stroke-width:1.0;"/><path d="M68,345.1289 L68.0934,345.1289 L67.8159,353.3688 L68.0859,361.6086 L68.1776,369.8484 L67.6829,378.0883 L68,386.3281 " fill="#383838" style="stroke:#383838;stroke-width:1.5;"/><polygon fill="#383838" points="64,376.3281,64.065,376.3541,64.6718,378.2768,65.6598,380.3521,66.5237,382.3776,66.9792,384.2398,68,386.3281,67.9759,386.3185,68.668,384.2753,69.4813,382.2806,70.3789,380.3197,70.986,378.2425,72,376.3281,72.1305,376.4586,71.0514,376.9796,70.3534,377.8815,69.7018,378.8299,68.7798,379.5079,68,380.3281,68.0161,380.3442,67.1925,379.5206,66.4421,378.7702,65.6564,377.9845,64.938,377.2662,64,376.3281" style="stroke:#383838;stroke-width:1.0;"/><path d="M192,345.1289 L192.0934,345.1289 L191.8159,353.3688 L192.0859,361.6086 L192.1776,369.8484 L191.6829,378.0883 L192,386.3281 " fill="#383838" style="stroke:#383838;stroke-width:1.5;"/><polygon fill="#383838" points="188,376.3281,188.065,376.3541,188.6718,378.2768,189.6598,380.3521,190.5237,382.3776,190.9792,384.2398,192,386.3281,191.9759,386.3185,192.668,384.2753,193.4813,382.2806,194.3789,380.3197,194.986,378.2425,196,376.3281,196.1305,376.4586,195.0514,376.9796,194.3534,377.8815,193.7018,378.8299,192.7798,379.5079,192,380.3281,192.0161,380.3442,191.1925,379.5206,190.4421,378.7702,189.6564,377.9845,188.938,377.2662,188,376.3281" style="stroke:#383838;stroke-width:1.0;"/><path d="M344.5,366.3281 L344.5934,366.3281 L344.3159,370.3281 L344.5859,374.3281 L344.6776,378.3281 L344.1829,382.3281 L344.5,386.3281 " fill="#383838" style="stroke:#383838;stroke-width:1.5;"/><polygon fill="#383838" points="340.5,376.3281,340.565,376.3541,341.1718,378.2768,342.1598,380.3521,343.0237,382.3776,343.4792,384.2398,344.5,386.3281,344.4759,386.3185,345.168,384.2753,345.9813,382.2806,346.8789,380.3197,347.486,378.2425,348.5,376.3281,348.6305,376.4586,347.5514,376.9796,346.8534,377.8815,346.2018,378.8299,345.2798,379.5079,344.5,380.3281,344.5161,380.3442,343.6925,379.5206,342.9421,378.7702,342.1564,377.9845,341.438,377.2662,340.5,376.3281" style="stroke:#383838;stroke-width:1.0;"/><path d="M210.5,138.2656 L210.5934,138.2656 L210.3159,142.2656 L210.5859,146.2656 L210.6776,150.2656 L210.1829,154.2656 L210.5,158.2656 " fill="#383838" style="stroke:#383838;stroke-width:1.5;"/><polygon fill="#383838" points="206.5,148.2656,206.565,148.2916,207.1718,150.2143,208.1598,152.2896,209.0237,154.3151,209.4792,156.1773,210.5,158.2656,210.4759,158.256,211.168,156.2128,211.9813,154.2181,212.8789,152.2572,213.486,150.18,214.5,148.2656,214.6305,148.3961,213.5514,148.9171,212.8534,149.819,212.2018,150.7674,211.2798,151.4454,210.5,152.2656,210.5161,152.2817,209.6925,151.4581,208.9421,150.7077,208.1564,149.922,207.438,149.2037,206.5,148.2656" style="stroke:#383838;stroke-width:1.0;"/><path d="M210.5,387.8281 L210.5934,387.8281 L210.3159,391.5281 L210.5859,395.2281 L210.6776,398.9281 L210.1829,402.6281 L210.5,406.3281 " fill="#383838" style="stroke:#383838;stroke-width:1.5;"/><polygon fill="#383838" points="206.5,396.3281,206.565,396.3541,207.1718,398.2768,208.1598,400.3521,209.0237,402.3776,209.4792,404.2398,210.5,406.3281,210.4759,406.3185,211.168,404.2753,211.9813,402.2806,212.8789,400.3197,213.486,398.2425,214.5,396.3281,214.6305,396.4586,213.5514,396.9796,212.8534,397.8815,212.2018,398.8299,211.2798,399.5079,210.5,400.3281,210.5161,400.3442,209.6925,399.5206,208.9421,398.7702,208.1564,397.9845,207.438,397.2662,206.5,396.3281" style="stroke:#383838;stroke-width:1.0;"/><!--MD5=[dd757e4cfdd6c2a60ee2024effcd3843]
@startuml ci
skinparam monochrome true
skinparam handwritten true

start
:编写IDL;
:Github Action;
split
  :**Java**
  - ProtoBuf types
  - gRPC server
  - gRPC client;
  :Maven Registry;
split again
  :**Node**  
  - ProtoBuf types
  - gRPC server
  - gRPC client;
  :NPM Registry;
split again
  :**Go**
  - ProtoBuf types
  - HTTP client
  - API mock
  - grpc-gateway server
  - gRPC server
  - gRPC client;
  :Github Repository;
end split
stop

@enduml

PlantUML version 1.2021.16(Thu Dec 09 01:25:22 CST 2021)
(GPL source distribution)
Java Runtime: OpenJDK Runtime Environment
JVM: OpenJDK 64-Bit Server VM
Default Encoding: UTF-8
Language: zh
Country: CN
--></g></svg>