<?xml version="1.0" encoding="UTF-8" standalone="no"?><svg xmlns="http://www.w3.org/2000/svg" xmlns:xlink="http://www.w3.org/1999/xlink" contentScriptType="application/ecmascript" contentStyleType="text/css" height="68px" preserveAspectRatio="none" style="width:453px;height:68px;background:#FFFFFF;" version="1.1" viewBox="0 0 453 68" width="453px" zoomAndPan="magnify"><defs><filter height="300%" id="f61gh4zxdno64" width="300%" x="-1" y="-1"><feGaussianBlur result="blurOut" stdDeviation="2.0"/><feColorMatrix in="blurOut" result="blurOut2" type="matrix" values="0 0 0 0 0 0 0 0 0 0 0 0 0 0 0 0 0 0 .4 0"/><feOffset dx="4.0" dy="4.0" in="blurOut2" result="blurOut3"/><feBlend in="SourceGraphic" in2="blurOut3" mode="normal"/></filter></defs><g><!--MD5=[4a65e84059005d12693a083370a06717]
entity client--><polygon fill="#F8F8F8" filter="url(#f61gh4zxdno64)" points="16,16,16.0495,16.0495,17.9023,13.9023,20.0456,12.0456,22.0942,10.0942,23.8319,7.8319,26,6,26,5.9223,35.5714,5.5735,45.1429,5.6165,54.7143,5.9318,64.2857,5.3086,73.8571,6.5536,83.4286,5.3697,93,6,92.9341,6,93.144,13.2977,92.9714,20.5953,93.0227,27.893,92.9894,35.1906,93,42.4883,93.0421,42.5304,91.0564,44.5446,89.138,46.6263,87.1582,48.6465,85.1601,50.6484,83,52.4883,83,52.7429,73.4286,52.9519,63.8571,53.1905,54.2857,51.7671,44.7143,53.1668,35.1429,52.1918,25.5714,53.0221,16,52.4883,15.835,52.4883,15.9772,45.1906,16.2472,37.893,15.9838,30.5953,16.0351,23.2977,16,16" style="stroke:#000000;stroke-width:1.5;"/><path d="M83,16 L83.0661,16.0661 L84.8698,13.8698 L87.0607,12.0607 L89.1256,10.1256 L90.7758,7.7758 L93,6 " fill="#F8F8F8" style="stroke:#000000;stroke-width:1.5;"/><path d="M16,16 L16,16.2802 L25.5714,15.4476 L35.1429,16.2577 L44.7143,16.5329 L54.2857,15.0488 L63.8571,15.8964 L73.4286,15.4313 L83,16 " fill="#F8F8F8" style="stroke:#000000;stroke-width:1.5;"/><path d="M83,16 L83.0934,16 L82.8159,23.2977 L83.0859,30.5953 L83.1776,37.893 L82.6829,45.1906 L83,52.4883 " fill="#F8F8F8" style="stroke:#000000;stroke-width:1.5;"/><text fill="#000000" font-family="sans-serif" font-size="14" lengthAdjust="spacing" textLength="37" x="31" y="39.5352">client</text><!--MD5=[dd82451e1dd92fe3da01853750f49ff6]
entity server--><polygon fill="#F8F8F8" filter="url(#f61gh4zxdno64)" points="354,16,354.0495,16.0495,355.9023,13.9023,358.0456,12.0456,360.0942,10.0942,361.8319,7.8319,364,6,364,5.9223,374.2857,5.5735,384.5714,5.6165,394.8571,5.9318,405.1429,5.3086,415.4286,6.5536,425.7143,5.3697,436,6,435.9341,6,436.144,13.2977,435.9714,20.5953,436.0227,27.893,435.9894,35.1906,436,42.4883,436.0421,42.5304,434.0564,44.5446,432.138,46.6263,430.1582,48.6465,428.1601,50.6484,426,52.4883,426,52.7429,415.7143,52.9519,405.4286,53.1905,395.1429,51.7671,384.8571,53.1668,374.5714,52.1918,364.2857,53.0221,354,52.4883,353.835,52.4883,353.9772,45.1906,354.2472,37.893,353.9838,30.5953,354.0351,23.2977,354,16" style="stroke:#000000;stroke-width:1.5;"/><path d="M426,16 L426.0661,16.0661 L427.8698,13.8698 L430.0607,12.0607 L432.1256,10.1256 L433.7758,7.7758 L436,6 " fill="#F8F8F8" style="stroke:#000000;stroke-width:1.5;"/><path d="M354,16 L354,16.2802 L364.2857,15.4476 L374.5714,16.2577 L384.8571,16.5329 L395.1429,15.0488 L405.4286,15.8964 L415.7143,15.4313 L426,16 " fill="#F8F8F8" style="stroke:#000000;stroke-width:1.5;"/><path d="M426,16 L426.0934,16 L425.8159,23.2977 L426.0859,30.5953 L426.1776,37.893 L425.6829,45.1906 L426,52.4883 " fill="#F8F8F8" style="stroke:#000000;stroke-width:1.5;"/><text fill="#000000" font-family="sans-serif" font-size="14" lengthAdjust="spacing" textLength="42" x="369" y="39.5352">server</text><!--MD5=[9332e112a9b807f5550ef929fe9693f1]
entity Envoy--><polygon fill="#F8F8F8" filter="url(#f61gh4zxdno64)" points="255.0442,30.9459,253.8715,32.5482,252.4845,34.8951,250.5008,36.4767,248.4163,37.3415,246.7542,37.4166,244.618,36.3349,242.6023,35.6283,241.0724,34.1936,240.2699,32.5511,239.7939,31.2433,239.3277,29.5351,238.5709,28.0651,239.1525,26.6298,239.662,25.0576,241.574,23.8142,242.9192,22.2008,244.5843,21.665,246.5637,21.2037,249.1021,21.4778,250.4924,22.1335,252.1089,22.4307,254.0743,24.4443,254.7595,26.5701,255.0571,28.0206,254.72,30.4108" style="stroke:#383838;stroke-width:1.5;"/><text fill="#000000" font-family="sans-serif" font-size="14" lengthAdjust="spacing" textLength="40" x="227" y="59.5352">Envoy</text><!--MD5=[bb50c3e1e8ae992ad597f6df780d2082]
reverse link client to Envoy--><path d="M98.34,29 L98.34,29.2802 L108.2964,28.4476 L118.2529,29.2577 L128.2093,29.5329 L138.1657,28.0488 L148.1221,28.8964 L158.0786,28.4313 L168.035,28.4887 L177.9914,28.9091 L187.9479,28.0782 L197.9043,29.7382 L207.8607,28.1596 L217.8171,28.7363 L227.7736,29.5759 L237.73,29 " fill="none" style="stroke:#383838;stroke-width:1.0;"/><polygon fill="#383838" points="93.14,29,93.1685,29.064,94.8839,29.6738,96.7662,30.6589,98.5941,31.5217,100.2434,31.9827,102.14,33,102.1217,32.9817,101.2395,32.0995,100.4496,31.3096,99.7239,30.5839,98.777,29.637,98.14,29,98.2705,29.1305,98.7914,28.0514,99.6934,27.3534,100.6418,26.7018,101.3198,25.7798,102.14,25,102.1492,25.0208,100.3357,25.7903,98.5642,26.6544,96.7724,27.4728,95.0193,28.3784,93.14,29" style="stroke:#383838;stroke-width:1.0;"/><text fill="#000000" font-family="sans-serif" font-size="13" lengthAdjust="spacing" textLength="64" x="124" y="25.5684">HTTP/502</text><!--MD5=[a470761583ec1e270c57bdb26c8b0ddc]
reverse link Envoy to server--><path d="M261.32,29 L261.32,29.2802 L271.5833,28.4476 L281.8467,29.2577 L292.11,29.5329 L302.3733,28.0488 L312.6367,28.8964 L322.9,28.4313 L333.1633,28.4887 L343.4267,28.9091 L353.69,29 " fill="none" style="stroke:#383838;stroke-width:1.0;stroke-dasharray:7.0,7.0;"/><polygon fill="#383838" points="256.27,29,256.2985,29.064,258.0139,29.6738,259.8962,30.6589,261.7241,31.5217,263.3734,31.9827,265.27,33,265.2517,32.9817,264.3695,32.0995,263.5796,31.3096,262.8539,30.5839,261.907,29.637,261.27,29,261.4005,29.1305,261.9214,28.0514,262.8234,27.3534,263.7718,26.7018,264.4498,25.7798,265.27,25,265.2792,25.0208,263.4657,25.7903,261.6942,26.6544,259.9024,27.4728,258.1493,28.3784,256.27,29" style="stroke:#383838;stroke-width:1.0;"/><text fill="#000000" font-family="sans-serif" font-size="13" lengthAdjust="spacing" textLength="17" x="306" y="25.5684">❌</text><!--MD5=[3cf84c2bb39f420794f8ce21b94ddac1]
@startuml degrade
skinparam monochrome true
skinparam handwritten true
left to right direction

node client
node server

client <- - Envoy: HTTP/502
Envoy <.. server: ❌

@enduml

PlantUML version 1.2021.16(Thu Dec 09 01:25:22 CST 2021)
(GPL source distribution)
Java Runtime: OpenJDK Runtime Environment
JVM: OpenJDK 64-Bit Server VM
Default Encoding: UTF-8
Language: zh
Country: CN
--></g></svg>