<?xml version="1.0" encoding="UTF-8" standalone="no"?><svg xmlns="http://www.w3.org/2000/svg" xmlns:xlink="http://www.w3.org/1999/xlink" contentScriptType="application/ecmascript" contentStyleType="text/css" height="288px" preserveAspectRatio="none" style="width:376px;height:288px;background:#FFFFFF;" version="1.1" viewBox="0 0 376 288" width="376px" zoomAndPan="magnify"><defs><filter height="300%" id="f7zmxy0eik8fd" width="300%" x="-1" y="-1"><feGaussianBlur result="blurOut" stdDeviation="2.0"/><feColorMatrix in="blurOut" result="blurOut2" type="matrix" values="0 0 0 0 0 0 0 0 0 0 0 0 0 0 0 0 0 0 .4 0"/><feOffset dx="4.0" dy="4.0" in="blurOut2" result="blurOut3"/><feBlend in="SourceGraphic" in2="blurOut3" mode="normal"/></filter></defs><g><polygon fill="#FFFFFF" filter="url(#f7zmxy0eik8fd)" points="120.5,7,120.5,7.2102,130.8077,6.5857,141.1154,7.1933,151.4231,7.3997,161.7308,6.2866,172.0385,6.9223,182.3462,6.5735,192.6538,6.6165,202.9615,6.9318,213.2692,6.3086,223.5769,7.5536,233.8846,6.3697,244.1923,6.8022,254.5,7,254.9319,7,254.4142,17.2222,254.5682,27.4444,254.4681,37.6667,254.6785,47.8889,254.7391,58.1111,255.0857,68.3333,255.1711,78.5556,255.1793,88.7778,254.7546,99,254.9636,109.2222,255.2022,119.4444,253.7788,129.6667,255.1785,139.8889,254.2035,150.1111,255.0338,160.3333,254.005,170.5556,254.4315,180.7778,254.5,191,254.5,191.7416,244.1923,190.9513,233.8846,191.1053,223.5769,191.3386,213.2692,191.4162,202.9615,190.9961,192.6538,191.2872,182.3462,190.4276,172.0385,191.2844,161.7308,191.5482,151.4231,191.4445,141.1154,191.613,130.8077,190.5169,120.5,191,119.8478,191,119.8786,180.7778,120.4411,170.5556,120.3035,160.3333,121.1814,150.1111,120.3253,139.8889,120.1569,129.6667,120.7283,119.4444,119.8332,109.2222,119.9809,99,121.149,88.7778,120.9357,78.5556,121.2345,68.3333,120.1782,58.1111,120.8192,47.8889,121.0904,37.6667,120.0276,27.4444,120.4041,17.2222,120.5,7" style="stroke:#000000;stroke-width:1.5;"/><path d="M120.5,11 L120.5,11.2802 L130.8077,10.4476 L141.1154,11.2577 L151.4231,11.5329 L161.7308,10.0488 L172.0385,10.8964 L182.3462,10.4313 L192.6538,10.4887 L202.9615,10.9091 L213.2692,10.0782 L223.5769,11.7382 L233.8846,10.1596 L244.1923,10.7363 L254.5,11 " fill="#FFFFFF" style="stroke:#000000;stroke-width:1.5;"/><!--MD5=[4a65e84059005d12693a083370a06717]
entity client--><polygon fill="#F8F8F8" filter="url(#f7zmxy0eik8fd)" points="149,33,149.0495,33.0495,150.9023,30.9023,153.0456,29.0456,155.0942,27.0942,156.8319,24.8319,159,23,159,22.9223,168.5714,22.5735,178.1429,22.6165,187.7143,22.9318,197.2857,22.3086,206.8571,23.5536,216.4286,22.3697,226,23,225.9341,23,226.144,30.2977,225.9714,37.5953,226.0227,44.893,225.9894,52.1906,226,59.4883,226.0421,59.5304,224.0564,61.5446,222.138,63.6263,220.1582,65.6465,218.1601,67.6484,216,69.4883,216,69.7429,206.4286,69.9519,196.8571,70.1905,187.2857,68.7671,177.7143,70.1668,168.1429,69.1918,158.5714,70.0221,149,69.4883,148.835,69.4883,148.9772,62.1906,149.2472,54.893,148.9838,47.5953,149.0351,40.2977,149,33" style="stroke:#000000;stroke-width:1.5;"/><path d="M216,33 L216.0661,33.0661 L217.8698,30.8698 L220.0607,29.0607 L222.1256,27.1256 L223.7758,24.7758 L226,23 " fill="#F8F8F8" style="stroke:#000000;stroke-width:1.5;"/><path d="M149,33 L149,33.2802 L158.5714,32.4476 L168.1429,33.2577 L177.7143,33.5329 L187.2857,32.0488 L196.8571,32.8964 L206.4286,32.4313 L216,33 " fill="#F8F8F8" style="stroke:#000000;stroke-width:1.5;"/><path d="M216,33 L216.0934,33 L215.8159,40.2977 L216.0859,47.5953 L216.1776,54.893 L215.6829,62.1906 L216,69.4883 " fill="#F8F8F8" style="stroke:#000000;stroke-width:1.5;"/><text fill="#000000" font-family="sans-serif" font-size="14" lengthAdjust="spacing" textLength="37" x="164" y="56.5352">client</text><!--MD5=[86b37c2f0f8ff2eec1d6ac131334a6aa]
entity conn_pool--><path d="M146.5688,137.2794 L146.5688,137.2794 L146.5713,137.3728 L149.3835,137.0213 L152.2101,137.2172 L155.032,137.2349 L157.8385,136.6663 L160.6663,136.9092 L160.6663,136.9092 L160.6613,136.875 L163.1659,136.3528 L165.6957,136.0028 L168.2429,135.7726 L170.7299,135.1297 L173.3013,135.0649 L173.3013,135.0649 L173.312,135.3107 L176.3753,134.9183 L179.4697,135.2437 L182.5679,135.6566 L185.644,135.5601 L188.7318,135.7315 L188.7318,135.7315 L188.7332,135.7618 L191.3909,135.8437 L194.0552,136.0635 L196.7163,136.2169 L199.3834,136.4971 L202.0309,136.3635 L202.0309,136.3635 L202.0592,136.6604 L205.2633,136.9688 L208.4493,137.0857 L211.6619,137.4829 L214.8758,137.8933 L218.0501,137.8873 L218.0501,137.8873 L218.0477,137.5668 L220.6945,138.1696 L223.3336,137.7169 L225.9785,138.0666 L228.6174,137.5901 L231.2612,137.7907 L231.2612,137.7907 L231.235,137.7754 L233.3692,141.0786 L234.8893,144.0231 L236.7717,147.1793 L238.6847,150.3533 L240.3781,153.399 L240.3781,153.399 L240.5434,153.4821 L238.752,156.6306 L237.2431,159.921 L235.2773,162.9818 L233.993,166.3851 L232.2556,169.5607 L232.2556,169.5607 L232.2596,169.8043 L229.2527,169.7087 L226.2478,169.7341 L223.2336,169.1974 L220.2262,169.0728 L217.2248,169.3131 L217.2248,169.3131 L217.1777,169.0409 L214.3309,169.7866 L211.431,170.2256 L208.6081,171.1095 L205.6538,171.2339 L202.7776,171.8097 L202.7776,171.8097 L202.7761,171.6572 L199.8534,171.883 L196.9244,171.4571 L193.9998,171.4946 L191.0796,171.9855 L188.1517,171.669 L188.1517,171.669 L188.1567,171.8625 L185.357,172.0687 L182.5416,171.6728 L179.7459,172.031 L176.9459,172.2249 L174.1358,172.036 L174.1358,172.036 L174.0941,171.8302 L171.0912,171.3793 L168.0746,170.8611 L165.0849,170.4752 L161.9909,169.5745 L158.9551,168.9614 L158.9551,168.9614 L158.9571,169.167 L156.0633,168.6874 L153.1733,168.6047 L150.2889,169.1017 L147.3942,168.5314 L144.5079,168.8221 L144.5079,168.8221 L144.724,168.889 L143.66,165.8264 L142.523,162.7411 L141.551,159.7069 L140.9604,156.7907 L139.83,153.7075 L139.83,153.7075 L139.7069,153.657 L141.4211,150.5217 L142.2982,147.043 L144.1272,143.9548 L145.4202,140.6467 L146.5688,137.2794 " fill="#F8F8F8" filter="url(#f7zmxy0eik8fd)" style="stroke:#000000;stroke-width:1.5;"/><text fill="#000000" font-family="sans-serif" font-size="14" lengthAdjust="spacing" textLength="72" x="151.5" y="157.5352">conn_pool</text><!--MD5=[66e0e2e999ee0dd4a03dafa42a76d5ef]
entity server1--><polygon fill="#F8F8F8" filter="url(#f7zmxy0eik8fd)" points="16,245,16.0495,245.0495,17.9023,242.9023,20.0456,241.0456,22.0942,239.0942,23.8319,236.8319,26,235,26,234.9223,36.125,234.5735,46.25,234.6165,56.375,234.9318,66.5,234.3086,76.625,235.5536,86.75,234.3697,96.875,234.8022,107,235,107.144,235,106.9714,242.2977,107.0227,249.5953,106.9894,256.893,107.0595,264.1906,107,271.4883,107.0564,271.5446,105.138,273.6263,103.1582,275.6465,101.1601,277.6484,99.06,279.5483,97,281.4883,97,281.9519,86.875,282.1905,76.75,280.7671,66.625,282.1668,56.5,281.1918,46.375,282.0221,36.25,280.9933,26.125,281.4198,16,281.4883,16.2472,281.4883,15.9838,274.1906,16.0351,266.893,16.1129,259.5953,16.1387,252.2977,16,245" style="stroke:#000000;stroke-width:1.5;"/><path d="M97,245 L97.0661,245.0661 L98.8698,242.8698 L101.0607,241.0607 L103.1256,239.1256 L104.7758,236.7758 L107,235 " fill="#F8F8F8" style="stroke:#000000;stroke-width:1.5;"/><path d="M16,245 L16,245.2802 L26.125,244.4476 L36.25,245.2577 L46.375,245.5329 L56.5,244.0488 L66.625,244.8964 L76.75,244.4313 L86.875,244.4887 L97,245 " fill="#F8F8F8" style="stroke:#000000;stroke-width:1.5;"/><path d="M97,245 L97.0934,245 L96.8159,252.2977 L97.0859,259.5953 L97.1776,266.893 L96.6829,274.1906 L97,281.4883 " fill="#F8F8F8" style="stroke:#000000;stroke-width:1.5;"/><text fill="#000000" font-family="sans-serif" font-size="14" lengthAdjust="spacing" textLength="51" x="31" y="268.5352">server1</text><!--MD5=[36a0fb3b920d2731ec683a5a5f5daac8]
entity server2--><polygon fill="#F8F8F8" filter="url(#f7zmxy0eik8fd)" points="142,245,142.0495,245.0495,143.9023,242.9023,146.0456,241.0456,148.0942,239.0942,149.8319,236.8319,152,235,152,234.9223,162.125,234.5735,172.25,234.6165,182.375,234.9318,192.5,234.3086,202.625,235.5536,212.75,234.3697,222.875,234.8022,233,235,233.144,235,232.9714,242.2977,233.0227,249.5953,232.9894,256.893,233.0595,264.1906,233,271.4883,233.0564,271.5446,231.138,273.6263,229.1582,275.6465,227.1601,277.6484,225.06,279.5483,223,281.4883,223,281.9519,212.875,282.1905,202.75,280.7671,192.625,282.1668,182.5,281.1918,172.375,282.0221,162.25,280.9933,152.125,281.4198,142,281.4883,142.2472,281.4883,141.9838,274.1906,142.0351,266.893,142.1129,259.5953,142.1387,252.2977,142,245" style="stroke:#000000;stroke-width:1.5;"/><path d="M223,245 L223.0661,245.0661 L224.8698,242.8698 L227.0607,241.0607 L229.1256,239.1256 L230.7758,236.7758 L233,235 " fill="#F8F8F8" style="stroke:#000000;stroke-width:1.5;"/><path d="M142,245 L142,245.2802 L152.125,244.4476 L162.25,245.2577 L172.375,245.5329 L182.5,244.0488 L192.625,244.8964 L202.75,244.4313 L212.875,244.4887 L223,245 " fill="#F8F8F8" style="stroke:#000000;stroke-width:1.5;"/><path d="M223,245 L223.0934,245 L222.8159,252.2977 L223.0859,259.5953 L223.1776,266.893 L222.6829,274.1906 L223,281.4883 " fill="#F8F8F8" style="stroke:#000000;stroke-width:1.5;"/><text fill="#000000" font-family="sans-serif" font-size="14" lengthAdjust="spacing" textLength="51" x="157" y="268.5352">server2</text><!--MD5=[03e800437cff674885281e885373ee45]
entity server3--><polygon fill="#F8F8F8" filter="url(#f7zmxy0eik8fd)" points="268,245,268.0495,245.0495,269.9023,242.9023,272.0456,241.0456,274.0942,239.0942,275.8319,236.8319,278,235,278,234.9223,288.125,234.5735,298.25,234.6165,308.375,234.9318,318.5,234.3086,328.625,235.5536,338.75,234.3697,348.875,234.8022,359,235,359.144,235,358.9714,242.2977,359.0227,249.5953,358.9894,256.893,359.0595,264.1906,359,271.4883,359.0564,271.5446,357.138,273.6263,355.1582,275.6465,353.1601,277.6484,351.06,279.5483,349,281.4883,349,281.9519,338.875,282.1905,328.75,280.7671,318.625,282.1668,308.5,281.1918,298.375,282.0221,288.25,280.9933,278.125,281.4198,268,281.4883,268.2472,281.4883,267.9838,274.1906,268.0351,266.893,268.1129,259.5953,268.1387,252.2977,268,245" style="stroke:#000000;stroke-width:1.5;"/><path d="M349,245 L349.0661,245.0661 L350.8698,242.8698 L353.0607,241.0607 L355.1256,239.1256 L356.7758,236.7758 L359,235 " fill="#F8F8F8" style="stroke:#000000;stroke-width:1.5;"/><path d="M268,245 L268,245.2802 L278.125,244.4476 L288.25,245.2577 L298.375,245.5329 L308.5,244.0488 L318.625,244.8964 L328.75,244.4313 L338.875,244.4887 L349,245 " fill="#F8F8F8" style="stroke:#000000;stroke-width:1.5;"/><path d="M349,245 L349.0934,245 L348.8159,252.2977 L349.0859,259.5953 L349.1776,266.893 L348.6829,274.1906 L349,281.4883 " fill="#F8F8F8" style="stroke:#000000;stroke-width:1.5;"/><text fill="#000000" font-family="sans-serif" font-size="14" lengthAdjust="spacing" textLength="51" x="283" y="268.5352">server3</text><!--MD5=[fbbf30c29ac4c056a784b8428cd57523]
link client to conn_pool--><path d="M187.5,69.06 L187.7802,69.06 L186.9476,80.016 L187.7577,90.972 L188.0329,101.928 L186.5488,112.884 L187.5,123.84 " fill="none" style="stroke:#383838;stroke-width:1.0;"/><polygon fill="#383838" points="187.5,128.98,187.564,129.0085,188.1738,127.1239,189.1589,125.4062,190.0217,123.6341,190.4827,121.6834,191.5,119.98,191.4817,119.9617,190.5995,120.6795,189.8096,121.4896,189.0839,122.3639,188.137,123.017,187.5,123.98,187.6305,124.1105,186.5514,123.0314,185.8534,122.3334,185.2018,121.6818,184.2798,120.7598,183.5,119.98,183.5208,119.9892,184.2903,121.7757,185.1544,123.6042,185.9728,125.4124,186.8784,127.2593,187.5,128.98" style="stroke:#383838;stroke-width:1.0;"/><!--MD5=[0cc84b64ef57c73a2b9916e5d9298848]
link conn_pool to server1--><path d="M160.78,175.06 L160.9584,175.2761 L152.8183,180.9151 L145.7241,187.821 L138.2892,194.3143 L129.7345,199.4509 L122.664,206.3856 L114.758,212.3081 L107.1845,218.6334 L99.8422,225.2388 L92.29,231.59 " fill="none" style="stroke:#383838;stroke-width:1.0;stroke-dasharray:7.0,7.0;"/><polygon fill="#383838" points="88.18,234.98,88.1988,235.0475,90.0402,234.3175,91.9919,233.9832,93.9077,233.52,95.7052,232.6332,97.6664,232.3328,97.664,232.307,96.5267,232.0839,95.4018,231.9908,94.2855,231.9881,93.1395,231.6739,92.0351,231.796,92.2188,231.8135,91.9333,230.6498,92.1842,229.5372,92.5006,228.4308,92.4361,227.2882,92.572,226.1646,92.5923,226.1748,91.684,227.923,90.8684,229.7173,90.0081,231.4894,89.2331,233.304,88.18,234.98" style="stroke:#383838;stroke-width:1.0;"/><!--MD5=[fbd94c42758b694346cd1f3f26607717]
link conn_pool to server2--><path d="M187.5,175.06 L187.7802,175.06 L186.9476,186.016 L187.7577,196.972 L188.0329,207.928 L186.5488,218.884 L187.5,229.84 " fill="none" style="stroke:#383838;stroke-width:1.0;stroke-dasharray:7.0,7.0;"/><polygon fill="#383838" points="187.5,234.98,187.564,235.0085,188.1738,233.1239,189.1589,231.4062,190.0217,229.6341,190.4827,227.6834,191.5,225.98,191.4817,225.9617,190.5995,226.6795,189.8096,227.4896,189.0839,228.3639,188.137,229.017,187.5,229.98,187.6305,230.1105,186.5514,229.0314,185.8534,228.3334,185.2018,227.6818,184.2798,226.7598,183.5,225.98,183.5208,225.9892,184.2903,227.7757,185.1544,229.6042,185.9728,231.4124,186.8784,233.2593,187.5,234.98" style="stroke:#383838;stroke-width:1.0;"/><!--MD5=[8b3b131c7ad10b4b4787932f1e78f5e8]
link conn_pool to server3--><path d="M214.22,175.06 L214.3984,175.2761 L221.4783,180.9151 L229.6041,187.821 L237.3892,194.3143 L244.0545,199.4509 L252.204,206.3856 L259.518,212.3081 L267.1645,218.6334 L275.0422,225.2388 L282.71,231.59 " fill="none" style="stroke:#383838;stroke-width:1.0;stroke-dasharray:7.0,7.0;"/><polygon fill="#383838" points="286.82,234.98,286.8827,235.0112,285.818,233.1553,285.1209,231.4826,284.3041,229.7502,283.0936,227.8217,282.428,226.1646,282.4022,226.1622,282.3939,227.2774,282.5155,228.405,282.7275,229.5413,282.6281,230.6478,282.9649,231.796,282.9824,231.9797,281.8187,231.6942,280.7061,231.9451,279.5998,232.2614,278.4571,232.197,277.3336,232.3328,277.3397,232.3547,279.228,232.852,281.1441,233.449,283.0469,233.9979,284.9752,234.6386,286.82,234.98" style="stroke:#383838;stroke-width:1.0;"/><!--MD5=[003f462ba078da50d34815f2dea6f0a3]
@startuml lb1
skinparam monochrome true
skinparam handwritten true

card {
  node client
  cloud conn_pool
}
node server1
node server2
node server3

client- ->conn_pool
conn_pool-.>server1
conn_pool-.>server2
conn_pool-.>server3

@enduml

PlantUML version 1.2021.16(Thu Dec 09 01:25:22 CST 2021)
(GPL source distribution)
Java Runtime: OpenJDK Runtime Environment
JVM: OpenJDK 64-Bit Server VM
Default Encoding: UTF-8
Language: zh
Country: CN
--></g></svg>