<?xml version="1.0" encoding="UTF-8" standalone="no"?><svg xmlns="http://www.w3.org/2000/svg" xmlns:xlink="http://www.w3.org/1999/xlink" contentScriptType="application/ecmascript" contentStyleType="text/css" height="221px" preserveAspectRatio="none" style="width:421px;height:221px;background:#FFFFFF;" version="1.1" viewBox="0 0 421 221" width="421px" zoomAndPan="magnify"><defs><filter height="300%" id="f1ok90j6ghtz0q" width="300%" x="-1" y="-1"><feGaussianBlur result="blurOut" stdDeviation="2.0"/><feColorMatrix in="blurOut" result="blurOut2" type="matrix" values="0 0 0 0 0 0 0 0 0 0 0 0 0 0 0 0 0 0 .4 0"/><feOffset dx="4.0" dy="4.0" in="blurOut2" result="blurOut3"/><feBlend in="SourceGraphic" in2="blurOut3" mode="normal"/></filter></defs><g><!--MD5=[4a65e84059005d12693a083370a06717]
entity client--><polygon fill="#F8F8F8" filter="url(#f1ok90j6ghtz0q)" points="16,97,16.0495,97.0495,17.9023,94.9023,20.0456,93.0456,22.0942,91.0942,23.8319,88.8319,26,87,26,86.9223,35.5714,86.5735,45.1429,86.6165,54.7143,86.9318,64.2857,86.3086,73.8571,87.5536,83.4286,86.3697,93,87,92.9341,87,93.144,94.2977,92.9714,101.5953,93.0227,108.893,92.9894,116.1906,93,123.4883,93.0421,123.5304,91.0564,125.5446,89.138,127.6263,87.1582,129.6465,85.1601,131.6484,83,133.4883,83,133.7429,73.4286,133.9519,63.8571,134.1905,54.2857,132.7671,44.7143,134.1668,35.1429,133.1918,25.5714,134.0221,16,133.4883,15.835,133.4883,15.9772,126.1906,16.2472,118.893,15.9838,111.5953,16.0351,104.2977,16,97" style="stroke:#000000;stroke-width:1.5;"/><path d="M83,97 L83.0661,97.0661 L84.8698,94.8698 L87.0607,93.0607 L89.1256,91.1256 L90.7758,88.7758 L93,87 " fill="#F8F8F8" style="stroke:#000000;stroke-width:1.5;"/><path d="M16,97 L16,97.2802 L25.5714,96.4476 L35.1429,97.2577 L44.7143,97.5329 L54.2857,96.0488 L63.8571,96.8964 L73.4286,96.4313 L83,97 " fill="#F8F8F8" style="stroke:#000000;stroke-width:1.5;"/><path d="M83,97 L83.0934,97 L82.8159,104.2977 L83.0859,111.5953 L83.1776,118.893 L82.6829,126.1906 L83,133.4883 " fill="#F8F8F8" style="stroke:#000000;stroke-width:1.5;"/><text fill="#000000" font-family="sans-serif" font-size="14" lengthAdjust="spacing" textLength="37" x="31" y="120.5352">client</text><!--MD5=[66e0e2e999ee0dd4a03dafa42a76d5ef]
entity server1--><polygon fill="#F8F8F8" filter="url(#f1ok90j6ghtz0q)" points="313,16,313.0495,16.0495,314.9023,13.9023,317.0456,12.0456,319.0942,10.0942,320.8319,7.8319,323,6,323,5.9223,333.125,5.5735,343.25,5.6165,353.375,5.9318,363.5,5.3086,373.625,6.5536,383.75,5.3697,393.875,5.8022,404,6,404.144,6,403.9714,13.2977,404.0227,20.5953,403.9894,27.893,404.0595,35.1906,404,42.4883,404.0564,42.5446,402.138,44.6263,400.1582,46.6465,398.1601,48.6484,396.06,50.5483,394,52.4883,394,52.9519,383.875,53.1905,373.75,51.7671,363.625,53.1668,353.5,52.1918,343.375,53.0221,333.25,51.9933,323.125,52.4198,313,52.4883,313.2472,52.4883,312.9838,45.1906,313.0351,37.893,313.1129,30.5953,313.1387,23.2977,313,16" style="stroke:#000000;stroke-width:1.5;"/><path d="M394,16 L394.0661,16.0661 L395.8698,13.8698 L398.0607,12.0607 L400.1256,10.1256 L401.7758,7.7758 L404,6 " fill="#F8F8F8" style="stroke:#000000;stroke-width:1.5;"/><path d="M313,16 L313,16.2802 L323.125,15.4476 L333.25,16.2577 L343.375,16.5329 L353.5,15.0488 L363.625,15.8964 L373.75,15.4313 L383.875,15.4887 L394,16 " fill="#F8F8F8" style="stroke:#000000;stroke-width:1.5;"/><path d="M394,16 L394.0934,16 L393.8159,23.2977 L394.0859,30.5953 L394.1776,37.893 L393.6829,45.1906 L394,52.4883 " fill="#F8F8F8" style="stroke:#000000;stroke-width:1.5;"/><text fill="#000000" font-family="sans-serif" font-size="14" lengthAdjust="spacing" textLength="51" x="328" y="39.5352">server1</text><!--MD5=[36a0fb3b920d2731ec683a5a5f5daac8]
entity server2--><polygon fill="#F8F8F8" filter="url(#f1ok90j6ghtz0q)" points="313,97,313.0495,97.0495,314.9023,94.9023,317.0456,93.0456,319.0942,91.0942,320.8319,88.8319,323,87,323,86.9223,333.125,86.5735,343.25,86.6165,353.375,86.9318,363.5,86.3086,373.625,87.5536,383.75,86.3697,393.875,86.8022,404,87,404.144,87,403.9714,94.2977,404.0227,101.5953,403.9894,108.893,404.0595,116.1906,404,123.4883,404.0564,123.5446,402.138,125.6263,400.1582,127.6465,398.1601,129.6484,396.06,131.5483,394,133.4883,394,133.9519,383.875,134.1905,373.75,132.7671,363.625,134.1668,353.5,133.1918,343.375,134.0221,333.25,132.9933,323.125,133.4198,313,133.4883,313.2472,133.4883,312.9838,126.1906,313.0351,118.893,313.1129,111.5953,313.1387,104.2977,313,97" style="stroke:#000000;stroke-width:1.5;"/><path d="M394,97 L394.0661,97.0661 L395.8698,94.8698 L398.0607,93.0607 L400.1256,91.1256 L401.7758,88.7758 L404,87 " fill="#F8F8F8" style="stroke:#000000;stroke-width:1.5;"/><path d="M313,97 L313,97.2802 L323.125,96.4476 L333.25,97.2577 L343.375,97.5329 L353.5,96.0488 L363.625,96.8964 L373.75,96.4313 L383.875,96.4887 L394,97 " fill="#F8F8F8" style="stroke:#000000;stroke-width:1.5;"/><path d="M394,97 L394.0934,97 L393.8159,104.2977 L394.0859,111.5953 L394.1776,118.893 L393.6829,126.1906 L394,133.4883 " fill="#F8F8F8" style="stroke:#000000;stroke-width:1.5;"/><text fill="#000000" font-family="sans-serif" font-size="14" lengthAdjust="spacing" textLength="51" x="328" y="120.5352">server2</text><!--MD5=[03e800437cff674885281e885373ee45]
entity server3--><polygon fill="#F8F8F8" filter="url(#f1ok90j6ghtz0q)" points="313,178,313.0495,178.0495,314.9023,175.9023,317.0456,174.0456,319.0942,172.0942,320.8319,169.8319,323,168,323,167.9223,333.125,167.5735,343.25,167.6165,353.375,167.9318,363.5,167.3086,373.625,168.5536,383.75,167.3697,393.875,167.8022,404,168,404.144,168,403.9714,175.2977,404.0227,182.5953,403.9894,189.893,404.0595,197.1906,404,204.4883,404.0564,204.5446,402.138,206.6263,400.1582,208.6465,398.1601,210.6484,396.06,212.5483,394,214.4883,394,214.9519,383.875,215.1905,373.75,213.7671,363.625,215.1668,353.5,214.1918,343.375,215.0221,333.25,213.9933,323.125,214.4198,313,214.4883,313.2472,214.4883,312.9838,207.1906,313.0351,199.893,313.1129,192.5953,313.1387,185.2977,313,178" style="stroke:#000000;stroke-width:1.5;"/><path d="M394,178 L394.0661,178.0661 L395.8698,175.8698 L398.0607,174.0607 L400.1256,172.1256 L401.7758,169.7758 L404,168 " fill="#F8F8F8" style="stroke:#000000;stroke-width:1.5;"/><path d="M313,178 L313,178.2802 L323.125,177.4476 L333.25,178.2577 L343.375,178.5329 L353.5,177.0488 L363.625,177.8964 L373.75,177.4313 L383.875,177.4887 L394,178 " fill="#F8F8F8" style="stroke:#000000;stroke-width:1.5;"/><path d="M394,178 L394.0934,178 L393.8159,185.2977 L394.0859,192.5953 L394.1776,199.893 L393.6829,207.1906 L394,214.4883 " fill="#F8F8F8" style="stroke:#000000;stroke-width:1.5;"/><text fill="#000000" font-family="sans-serif" font-size="14" lengthAdjust="spacing" textLength="51" x="328" y="201.5352">server3</text><!--MD5=[9332e112a9b807f5550ef929fe9693f1]
entity Envoy--><polygon fill="#F8F8F8" filter="url(#f1ok90j6ghtz0q)" points="232.0442,111.9459,230.8715,113.5482,229.4845,115.8951,227.5008,117.4767,225.4163,118.3415,223.7542,118.4166,221.618,117.3349,219.6023,116.6283,218.0724,115.1936,217.2699,113.5511,216.7939,112.2433,216.3277,110.5351,215.5709,109.0651,216.1525,107.6298,216.662,106.0576,218.574,104.8142,219.9192,103.2008,221.5843,102.665,223.5637,102.2037,226.1021,102.4778,227.4924,103.1335,229.1089,103.4307,231.0743,105.4443,231.7595,107.5701,232.0571,109.0206,231.72,111.4108" style="stroke:#383838;stroke-width:1.5;"/><text fill="#000000" font-family="sans-serif" font-size="14" lengthAdjust="spacing" textLength="40" x="204" y="140.5352">Envoy</text><!--MD5=[861bef5c316deae15984a0ca619c0ba4]
link client to Envoy--><path d="M93.09,110 L93.09,110.2802 L102.8175,109.4476 L112.545,110.2577 L122.2725,110.5329 L132,109.0488 L141.7275,109.8964 L151.455,109.4313 L161.1825,109.4887 L170.91,109.9091 L180.6375,109.0782 L190.365,110.7382 L200.0925,109.1596 L209.82,110 " fill="none" style="stroke:#383838;stroke-width:1.0;"/><polygon fill="#383838" points="214.93,110,214.9585,110.064,213.0739,109.0738,211.3562,108.4589,209.5841,107.7217,207.6334,106.5827,205.93,106,205.9117,105.9817,206.6295,106.6995,207.4396,107.5096,208.3139,108.3839,208.967,109.037,209.93,110,210.0605,110.1305,208.9814,110.6514,208.2834,111.5534,207.6318,112.5018,206.7098,113.1798,205.93,114,205.9392,114.0208,207.7257,113.1903,209.5542,112.4544,211.3624,111.6728,213.2093,110.9784,214.93,110" style="stroke:#383838;stroke-width:1.0;"/><text fill="#000000" font-family="sans-serif" font-size="13" lengthAdjust="spacing" textLength="41" x="124" y="106.5684">HTTP2</text><!--MD5=[58286d913c79a2b84983736bd812c009]
link Envoy to server1--><path d="M233.29,104.93 L233.4362,105.1691 L241.2149,99.4377 L249.8504,95.1079 L258.207,90.3217 L265.6459,84.0344 L274.301,79.7366 L282.2714,74.3188 L290.5143,69.3467 L298.9466,64.6845 L306.7262,58.9545 L315.42,54.72 " fill="none" style="stroke:#383838;stroke-width:1.0;"/><polygon fill="#383838" points="319.69,52.11,319.6992,52.1795,317.7191,52.2304,315.7926,52.6885,313.8487,53.014,311.8474,52.9035,309.9255,53.3965,309.9195,53.3713,310.9922,53.523,312.0955,53.8017,313.2201,54.1686,314.2715,54.2314,315.4254,54.7201,315.6048,54.7633,314.9564,55.7709,314.8318,56.9046,314.7712,58.0537,314.3387,59.1133,314.1017,60.22,314.1205,60.2329,315.2106,58.5919,316.386,57.0097,317.5203,55.3992,318.7331,53.8428,319.69,52.11" style="stroke:#383838;stroke-width:1.0;"/><!--MD5=[e7f3d5b9092e7d46ca65484caa921d03]
link Envoy to server2--><path d="M233.29,110 L233.29,110.2802 L243.9343,109.4476 L254.5786,110.2577 L265.2229,110.5329 L275.8671,109.0488 L286.5114,109.8964 L297.1557,109.4313 L307.8,110 " fill="none" style="stroke:#383838;stroke-width:1.0;"/><polygon fill="#383838" points="312.94,110,312.9685,110.064,311.0839,109.0738,309.3662,108.4589,307.5941,107.7217,305.6434,106.5827,303.94,106,303.9217,105.9817,304.6395,106.6995,305.4496,107.5096,306.3239,108.3839,306.977,109.037,307.94,110,308.0705,110.1305,306.9914,110.6514,306.2934,111.5534,305.6418,112.5018,304.7198,113.1798,303.94,114,303.9492,114.0208,305.7357,113.1903,307.5642,112.4544,309.3724,111.6728,311.2193,110.9784,312.94,110" style="stroke:#383838;stroke-width:1.0;"/><!--MD5=[eb16dc18f8bb16bd3b146a22be6d869d]
link Envoy to server3--><path d="M233.29,115.07 L233.4362,115.3091 L241.2149,119.6197 L249.8504,125.3319 L258.207,130.5877 L265.6459,134.3424 L274.301,140.0866 L282.2714,144.7108 L290.5143,149.7807 L298.9466,155.1605 L306.7262,159.4725 L315.42,165.28 " fill="none" style="stroke:#383838;stroke-width:1.0;"/><polygon fill="#383838" points="319.69,167.89,319.7477,167.9298,318.4586,166.1896,317.5078,164.6826,316.4468,163.0996,315.0236,161.2671,314.1017,159.78,314.0766,159.774,314.2282,160.8467,314.5069,161.9501,314.8738,163.0746,314.9366,164.126,315.4254,165.2799,315.4685,165.4593,314.2762,165.3403,313.21,165.7452,312.1591,166.214,311.0188,166.311,309.9255,166.6035,309.9285,166.626,311.877,166.8502,313.8391,167.1771,315.7946,167.4544,317.7626,167.8263,319.69,167.89" style="stroke:#383838;stroke-width:1.0;"/><!--MD5=[34dd4f29e85d1353abbe67ea6c590ee5]
@startuml lb2
skinparam monochrome true
skinparam handwritten true
left to right direction

node client
node server1
node server2
node server3

client - -> Envoy: HTTP2
Envoy - -> server1
Envoy - -> server2
Envoy - -> server3

@enduml

PlantUML version 1.2021.16(Thu Dec 09 01:25:22 CST 2021)
(GPL source distribution)
Java Runtime: OpenJDK Runtime Environment
JVM: OpenJDK 64-Bit Server VM
Default Encoding: UTF-8
Language: zh
Country: CN
--></g></svg>