<?xml version="1.0" encoding="UTF-8" standalone="no"?><svg xmlns="http://www.w3.org/2000/svg" xmlns:xlink="http://www.w3.org/1999/xlink" contentScriptType="application/ecmascript" contentStyleType="text/css" height="165px" preserveAspectRatio="none" style="width:369px;height:165px;background:#FFFFFF;" version="1.1" viewBox="0 0 369 165" width="369px" zoomAndPan="magnify"><defs><filter height="300%" id="fantrqrf2ton2" width="300%" x="-1" y="-1"><feGaussianBlur result="blurOut" stdDeviation="2.0"/><feColorMatrix in="blurOut" result="blurOut2" type="matrix" values="0 0 0 0 0 0 0 0 0 0 0 0 0 0 0 0 0 0 .4 0"/><feOffset dx="4.0" dy="4.0" in="blurOut2" result="blurOut3"/><feBlend in="SourceGraphic" in2="blurOut3" mode="normal"/></filter></defs><g><!--MD5=[4a65e84059005d12693a083370a06717]
entity client--><polygon fill="#F8F8F8" filter="url(#fantrqrf2ton2)" points="23,16,23.0495,16.0495,24.9023,13.9023,27.0456,12.0456,29.0942,10.0942,30.8319,7.8319,33,6,33,5.9223,42.5714,5.5735,52.1429,5.6165,61.7143,5.9318,71.2857,5.3086,80.8571,6.5536,90.4286,5.3697,100,6,99.9341,6,100.144,13.2977,99.9714,20.5953,100.0227,27.893,99.9894,35.1906,100,42.4883,100.0421,42.5304,98.0564,44.5446,96.138,46.6263,94.1582,48.6465,92.1601,50.6484,90,52.4883,90,52.7429,80.4286,52.9519,70.8571,53.1905,61.2857,51.7671,51.7143,53.1668,42.1429,52.1918,32.5714,53.0221,23,52.4883,22.835,52.4883,22.9772,45.1906,23.2472,37.893,22.9838,30.5953,23.0351,23.2977,23,16" style="stroke:#000000;stroke-width:1.5;"/><path d="M90,16 L90.0661,16.0661 L91.8698,13.8698 L94.0607,12.0607 L96.1256,10.1256 L97.7758,7.7758 L100,6 " fill="#F8F8F8" style="stroke:#000000;stroke-width:1.5;"/><path d="M23,16 L23,16.2802 L32.5714,15.4476 L42.1429,16.2577 L51.7143,16.5329 L61.2857,15.0488 L70.8571,15.8964 L80.4286,15.4313 L90,16 " fill="#F8F8F8" style="stroke:#000000;stroke-width:1.5;"/><path d="M90,16 L90.0934,16 L89.8159,23.2977 L90.0859,30.5953 L90.1776,37.893 L89.6829,45.1906 L90,52.4883 " fill="#F8F8F8" style="stroke:#000000;stroke-width:1.5;"/><text fill="#000000" font-family="sans-serif" font-size="14" lengthAdjust="spacing" textLength="37" x="38" y="39.5352">client</text><!--MD5=[66e0e2e999ee0dd4a03dafa42a76d5ef]
entity server1--><polygon fill="#F8F8F8" filter="url(#fantrqrf2ton2)" points="16,122,16.0495,122.0495,17.9023,119.9023,20.0456,118.0456,22.0942,116.0942,23.8319,113.8319,26,112,26,111.9223,36.125,111.5735,46.25,111.6165,56.375,111.9318,66.5,111.3086,76.625,112.5536,86.75,111.3697,96.875,111.8022,107,112,107.144,112,106.9714,119.2977,107.0227,126.5953,106.9894,133.893,107.0595,141.1906,107,148.4883,107.0564,148.5446,105.138,150.6263,103.1582,152.6465,101.1601,154.6484,99.06,156.5483,97,158.4883,97,158.9519,86.875,159.1905,76.75,157.7671,66.625,159.1668,56.5,158.1918,46.375,159.0221,36.25,157.9933,26.125,158.4198,16,158.4883,16.2472,158.4883,15.9838,151.1906,16.0351,143.893,16.1129,136.5953,16.1387,129.2977,16,122" style="stroke:#000000;stroke-width:1.5;"/><path d="M97,122 L97.0661,122.0661 L98.8698,119.8698 L101.0607,118.0607 L103.1256,116.1256 L104.7758,113.7758 L107,112 " fill="#F8F8F8" style="stroke:#000000;stroke-width:1.5;"/><path d="M16,122 L16,122.2802 L26.125,121.4476 L36.25,122.2577 L46.375,122.5329 L56.5,121.0488 L66.625,121.8964 L76.75,121.4313 L86.875,121.4887 L97,122 " fill="#F8F8F8" style="stroke:#000000;stroke-width:1.5;"/><path d="M97,122 L97.0934,122 L96.8159,129.2977 L97.0859,136.5953 L97.1776,143.893 L96.6829,151.1906 L97,158.4883 " fill="#F8F8F8" style="stroke:#000000;stroke-width:1.5;"/><text fill="#000000" font-family="sans-serif" font-size="14" lengthAdjust="spacing" textLength="51" x="31" y="145.5352">server1</text><!--MD5=[36a0fb3b920d2731ec683a5a5f5daac8]
entity server2--><polygon fill="#F8F8F8" filter="url(#fantrqrf2ton2)" points="135,16,135.0495,16.0495,136.9023,13.9023,139.0456,12.0456,141.0942,10.0942,142.8319,7.8319,145,6,145,5.9223,155.125,5.5735,165.25,5.6165,175.375,5.9318,185.5,5.3086,195.625,6.5536,205.75,5.3697,215.875,5.8022,226,6,226.144,6,225.9714,13.2977,226.0227,20.5953,225.9894,27.893,226.0595,35.1906,226,42.4883,226.0564,42.5446,224.138,44.6263,222.1582,46.6465,220.1601,48.6484,218.06,50.5483,216,52.4883,216,52.9519,205.875,53.1905,195.75,51.7671,185.625,53.1668,175.5,52.1918,165.375,53.0221,155.25,51.9933,145.125,52.4198,135,52.4883,135.2472,52.4883,134.9838,45.1906,135.0351,37.893,135.1129,30.5953,135.1387,23.2977,135,16" style="stroke:#000000;stroke-width:1.5;"/><path d="M216,16 L216.0661,16.0661 L217.8698,13.8698 L220.0607,12.0607 L222.1256,10.1256 L223.7758,7.7758 L226,6 " fill="#F8F8F8" style="stroke:#000000;stroke-width:1.5;"/><path d="M135,16 L135,16.2802 L145.125,15.4476 L155.25,16.2577 L165.375,16.5329 L175.5,15.0488 L185.625,15.8964 L195.75,15.4313 L205.875,15.4887 L216,16 " fill="#F8F8F8" style="stroke:#000000;stroke-width:1.5;"/><path d="M216,16 L216.0934,16 L215.8159,23.2977 L216.0859,30.5953 L216.1776,37.893 L215.6829,45.1906 L216,52.4883 " fill="#F8F8F8" style="stroke:#000000;stroke-width:1.5;"/><text fill="#000000" font-family="sans-serif" font-size="14" lengthAdjust="spacing" textLength="51" x="150" y="39.5352">server2</text><!--MD5=[03e800437cff674885281e885373ee45]
entity server3--><polygon fill="#F8F8F8" filter="url(#fantrqrf2ton2)" points="261,16,261.0495,16.0495,262.9023,13.9023,265.0456,12.0456,267.0942,10.0942,268.8319,7.8319,271,6,271,5.9223,281.125,5.5735,291.25,5.6165,301.375,5.9318,311.5,5.3086,321.625,6.5536,331.75,5.3697,341.875,5.8022,352,6,352.144,6,351.9714,13.2977,352.0227,20.5953,351.9894,27.893,352.0595,35.1906,352,42.4883,352.0564,42.5446,350.138,44.6263,348.1582,46.6465,346.1601,48.6484,344.06,50.5483,342,52.4883,342,52.9519,331.875,53.1905,321.75,51.7671,311.625,53.1668,301.5,52.1918,291.375,53.0221,281.25,51.9933,271.125,52.4198,261,52.4883,261.2472,52.4883,260.9838,45.1906,261.0351,37.893,261.1129,30.5953,261.1387,23.2977,261,16" style="stroke:#000000;stroke-width:1.5;"/><path d="M342,16 L342.0661,16.0661 L343.8698,13.8698 L346.0607,12.0607 L348.1256,10.1256 L349.7758,7.7758 L352,6 " fill="#F8F8F8" style="stroke:#000000;stroke-width:1.5;"/><path d="M261,16 L261,16.2802 L271.125,15.4476 L281.25,16.2577 L291.375,16.5329 L301.5,15.0488 L311.625,15.8964 L321.75,15.4313 L331.875,15.4887 L342,16 " fill="#F8F8F8" style="stroke:#000000;stroke-width:1.5;"/><path d="M342,16 L342.0934,16 L341.8159,23.2977 L342.0859,30.5953 L342.1776,37.893 L341.6829,45.1906 L342,52.4883 " fill="#F8F8F8" style="stroke:#000000;stroke-width:1.5;"/><text fill="#000000" font-family="sans-serif" font-size="14" lengthAdjust="spacing" textLength="51" x="276" y="39.5352">server3</text><!--MD5=[937665b5f3d2d292490937ea4a585831]
link client to server1--><path d="M61.5,57.19 L61.7802,57.19 L60.9476,67.14 L61.7577,77.09 L62.0329,87.04 L60.5488,96.99 L61.5,106.94 " fill="none" style="stroke:#383838;stroke-width:1.0;"/><polygon fill="#383838" points="61.5,111.98,61.564,112.0085,62.1738,110.1239,63.1589,108.4062,64.0217,106.6341,64.4827,104.6834,65.5,102.98,65.4817,102.9617,64.5995,103.6795,63.8096,104.4896,63.0839,105.3639,62.137,106.017,61.5,106.98,61.6305,107.1105,60.5514,106.0314,59.8534,105.3334,59.2018,104.6818,58.2798,103.7598,57.5,102.98,57.5208,102.9892,58.2903,104.7757,59.1544,106.6042,59.9728,108.4124,60.8784,110.2593,61.5,111.98" style="stroke:#383838;stroke-width:1.0;"/><polygon fill="#383838" points="61.5,52.06,61.564,52.0885,60.5738,53.8039,59.9589,55.6862,59.2217,57.5141,58.0827,59.1634,57.5,61.06,57.4817,61.0417,58.1995,60.1595,59.0096,59.3696,59.8839,58.6439,60.537,57.697,61.5,57.06,61.6305,57.1905,62.1514,57.7114,63.0534,58.6134,64.0018,59.5618,64.6798,60.2398,65.5,61.06,65.5208,61.0692,64.6903,59.2557,63.9544,57.4842,63.1728,55.6924,62.4784,53.9393,61.5,52.06" style="stroke:#383838;stroke-width:1.0;"/><!--MD5=[6af6493db853e8c614d29ed0094398a1]
@startuml lb_sidecar
skinparam monochrome true
skinparam handwritten true

node client
node server1
node server2
node server3

client<- ->server1

@enduml

PlantUML version 1.2021.16(Thu Dec 09 01:25:22 CST 2021)
(GPL source distribution)
Java Runtime: OpenJDK Runtime Environment
JVM: OpenJDK 64-Bit Server VM
Default Encoding: UTF-8
Language: zh
Country: CN
--></g></svg>