<?xml version="1.0" encoding="UTF-8" standalone="no"?><svg xmlns="http://www.w3.org/2000/svg" xmlns:xlink="http://www.w3.org/1999/xlink" contentScriptType="application/ecmascript" contentStyleType="text/css" height="140px" preserveAspectRatio="none" style="width:476px;height:140px;background:#FFFFFF;" version="1.1" viewBox="0 0 476 140" width="476px" zoomAndPan="magnify"><defs><filter height="300%" id="flsyybszi2fbl" width="300%" x="-1" y="-1"><feGaussianBlur result="blurOut" stdDeviation="2.0"/><feColorMatrix in="blurOut" result="blurOut2" type="matrix" values="0 0 0 0 0 0 0 0 0 0 0 0 0 0 0 0 0 0 .4 0"/><feOffset dx="4.0" dy="4.0" in="blurOut2" result="blurOut3"/><feBlend in="SourceGraphic" in2="blurOut3" mode="normal"/></filter></defs><g><!--MD5=[93332a8572591d97ac3d7d93f487262b]
entity client1--><polygon fill="#F8F8F8" filter="url(#flsyybszi2fbl)" points="16,16,16.0495,16.0495,17.9023,13.9023,20.0456,12.0456,22.0942,10.0942,23.8319,7.8319,26,6,26,5.9223,35.5,5.5735,45,5.6165,54.5,5.9318,64,5.3086,73.5,6.5536,83,5.3697,92.5,5.8022,102,6,102.144,6,101.9714,13.2977,102.0227,20.5953,101.9894,27.893,102.0595,35.1906,102,42.4883,102.0564,42.5446,100.138,44.6263,98.1582,46.6465,96.1601,48.6484,94.06,50.5483,92,52.4883,92,52.9519,82.5,53.1905,73,51.7671,63.5,53.1668,54,52.1918,44.5,53.0221,35,51.9933,25.5,52.4198,16,52.4883,16.2472,52.4883,15.9838,45.1906,16.0351,37.893,16.1129,30.5953,16.1387,23.2977,16,16" style="stroke:#000000;stroke-width:1.5;"/><path d="M92,16 L92.0661,16.0661 L93.8698,13.8698 L96.0607,12.0607 L98.1256,10.1256 L99.7758,7.7758 L102,6 " fill="#F8F8F8" style="stroke:#000000;stroke-width:1.5;"/><path d="M16,16 L16,16.2802 L25.5,15.4476 L35,16.2577 L44.5,16.5329 L54,15.0488 L63.5,15.8964 L73,15.4313 L82.5,15.4887 L92,16 " fill="#F8F8F8" style="stroke:#000000;stroke-width:1.5;"/><path d="M92,16 L92.0934,16 L91.8159,23.2977 L92.0859,30.5953 L92.1776,37.893 L91.6829,45.1906 L92,52.4883 " fill="#F8F8F8" style="stroke:#000000;stroke-width:1.5;"/><text fill="#000000" font-family="sans-serif" font-size="14" lengthAdjust="spacing" textLength="46" x="31" y="39.5352">client1</text><!--MD5=[8114dbb7027f683df91a35cf885956a2]
entity client2--><polygon fill="#F8F8F8" filter="url(#flsyybszi2fbl)" points="197,97,197.0495,97.0495,198.9023,94.9023,201.0456,93.0456,203.0942,91.0942,204.8319,88.8319,207,87,207,86.9223,216.5,86.5735,226,86.6165,235.5,86.9318,245,86.3086,254.5,87.5536,264,86.3697,273.5,86.8022,283,87,283.144,87,282.9714,94.2977,283.0227,101.5953,282.9894,108.893,283.0595,116.1906,283,123.4883,283.0564,123.5446,281.138,125.6263,279.1582,127.6465,277.1601,129.6484,275.06,131.5483,273,133.4883,273,133.9519,263.5,134.1905,254,132.7671,244.5,134.1668,235,133.1918,225.5,134.0221,216,132.9933,206.5,133.4198,197,133.4883,197.2472,133.4883,196.9838,126.1906,197.0351,118.893,197.1129,111.5953,197.1387,104.2977,197,97" style="stroke:#000000;stroke-width:1.5;"/><path d="M273,97 L273.0661,97.0661 L274.8698,94.8698 L277.0607,93.0607 L279.1256,91.1256 L280.7758,88.7758 L283,87 " fill="#F8F8F8" style="stroke:#000000;stroke-width:1.5;"/><path d="M197,97 L197,97.2802 L206.5,96.4476 L216,97.2577 L225.5,97.5329 L235,96.0488 L244.5,96.8964 L254,96.4313 L263.5,96.4887 L273,97 " fill="#F8F8F8" style="stroke:#000000;stroke-width:1.5;"/><path d="M273,97 L273.0934,97 L272.8159,104.2977 L273.0859,111.5953 L273.1776,118.893 L272.6829,126.1906 L273,133.4883 " fill="#F8F8F8" style="stroke:#000000;stroke-width:1.5;"/><text fill="#000000" font-family="sans-serif" font-size="14" lengthAdjust="spacing" textLength="46" x="212" y="120.5352">client2</text><!--MD5=[7b30460008fc71f9986330c33ee2d290]
entity gateway--><path d="M206.4368,14.5539 L206.4368,14.5539 L206.4436,14.647 L208.6231,14.2084 L210.8427,14.3159 L213.0493,14.2456 L215.2128,13.5904 L217.4359,13.7448 L217.4359,13.7448 L217.4329,13.7104 L219.9631,13.3344 L222.5084,13.1319 L225.0641,13.05 L227.5837,12.5525 L230.154,12.637 L230.154,12.637 L230.1604,12.883 L232.4857,12.4172 L234.8296,12.6696 L237.1757,13.0096 L239.5087,12.8398 L241.8486,12.9381 L241.8486,12.9381 L241.8496,12.9684 L243.8219,12.9911 L245.7989,13.1518 L247.7736,13.2459 L249.7526,13.4671 L251.7176,13.2741 L251.7176,13.2741 L251.7226,13.5723 L254.2016,13.6175 L256.6773,13.4704 L259.1578,13.6048 L261.6385,13.7524 L264.1122,13.4819 L264.1122,13.4819 L264.0832,13.1627 L266.5167,13.9986 L268.8546,13.7834 L271.2652,14.3673 L273.6009,14.1282 L275.998,14.5637 L275.998,14.5637 L275.97,14.5518 L277.5556,17.6422 L278.4866,20.4543 L279.8038,23.4306 L281.1535,26.4207 L282.2692,29.3114 L282.2692,29.3114 L282.4422,29.3769 L281.0835,32.4384 L280.0205,35.6118 L278.4792,38.6041 L277.6513,41.8666 L276.3491,44.9494 L276.3491,44.9494 L276.4107,45.1852 L274.0462,45.7559 L271.7123,46.4436 L269.2362,46.5876 L266.8644,47.1301 L264.5849,48.0258 L264.5849,48.0258 L264.5175,47.758 L262.0252,48.6425 L259.457,49.2253 L256.9988,50.2458 L254.3527,50.5189 L251.8184,51.2363 L251.8184,51.2363 L251.7889,51.0867 L249.5386,51.7879 L247.1626,51.8496 L244.876,52.3662 L242.6769,53.3276 L240.3219,53.4967 L240.3219,53.4967 L240.3866,53.6792 L238.3695,53.0735 L236.1511,51.9002 L234.1847,51.4379 L232.1634,50.8206 L230.0142,49.8424 L230.0142,49.8424 L229.9864,49.6343 L227.3412,49.444 L224.687,49.1856 L222.0506,49.061 L219.3447,48.4159 L216.6776,48.0616 L216.6776,48.0616 L216.7101,48.2646 L214.6261,47.4961 L212.6049,47.1195 L210.6754,47.3153 L208.577,46.4573 L206.6149,46.4495 L206.6149,46.4495 L206.8149,46.5552 L204.9336,43.1568 L202.9847,39.7227 L201.1885,36.3693 L199.7453,33.2024 L197.8025,29.7716 L197.8025,29.7716 L197.6868,29.7059 L199.7582,26.8578 L201.0426,23.5633 L203.2218,20.7764 L204.8971,17.7036 L206.4368,14.5539 " fill="#F8F8F8" filter="url(#flsyybszi2fbl)" style="stroke:#000000;stroke-width:1.5;"/><text fill="#000000" font-family="sans-serif" font-size="14" lengthAdjust="spacing" textLength="56" x="212" y="34.5352">gateway</text><!--MD5=[dd82451e1dd92fe3da01853750f49ff6]
entity server--><polygon fill="#F8F8F8" filter="url(#flsyybszi2fbl)" points="377,69,377.0495,69.0495,378.9023,66.9023,381.0456,65.0456,383.0942,63.0942,384.8319,60.8319,387,59,387,58.9223,397.2857,58.5735,407.5714,58.6165,417.8571,58.9318,428.1429,58.3086,438.4286,59.5536,448.7143,58.3697,459,59,458.9341,59,459.144,66.2977,458.9714,73.5953,459.0227,80.893,458.9894,88.1906,459,95.4883,459.0421,95.5304,457.0564,97.5446,455.138,99.6263,453.1582,101.6465,451.1601,103.6484,449,105.4883,449,105.7429,438.7143,105.9519,428.4286,106.1905,418.1429,104.7671,407.8571,106.1668,397.5714,105.1918,387.2857,106.0221,377,105.4883,376.835,105.4883,376.9772,98.1906,377.2472,90.893,376.9838,83.5953,377.0351,76.2977,377,69" style="stroke:#000000;stroke-width:1.5;"/><path d="M449,69 L449.0661,69.0661 L450.8698,66.8698 L453.0607,65.0607 L455.1256,63.1256 L456.7758,60.7758 L459,59 " fill="#F8F8F8" style="stroke:#000000;stroke-width:1.5;"/><path d="M377,69 L377,69.2802 L387.2857,68.4476 L397.5714,69.2577 L407.8571,69.5329 L418.1429,68.0488 L428.4286,68.8964 L438.7143,68.4313 L449,69 " fill="#F8F8F8" style="stroke:#000000;stroke-width:1.5;"/><path d="M449,69 L449.0934,69 L448.8159,76.2977 L449.0859,83.5953 L449.1776,90.893 L448.6829,98.1906 L449,105.4883 " fill="#F8F8F8" style="stroke:#000000;stroke-width:1.5;"/><text fill="#000000" font-family="sans-serif" font-size="14" lengthAdjust="spacing" textLength="42" x="392" y="92.5352">server</text><!--MD5=[5bd865bcb37d33a1020497a953a9ea07]
link client1 to gateway--><path d="M102.42,29 L102.42,29.2802 L112.35,28.4476 L122.28,29.2577 L132.21,29.5329 L142.14,28.0488 L152.07,28.8964 L162,28.4313 L171.93,28.4887 L181.86,28.9091 L191.79,29 " fill="none" style="stroke:#383838;stroke-width:1.0;"/><polygon fill="#383838" points="196.88,29,196.9085,29.064,195.0239,28.0738,193.3062,27.4589,191.5341,26.7217,189.5834,25.5827,187.88,25,187.8617,24.9817,188.5795,25.6995,189.3896,26.5096,190.2639,27.3839,190.917,28.037,191.88,29,192.0105,29.1305,190.9314,29.6514,190.2334,30.5534,189.5818,31.5018,188.6598,32.1798,187.88,33,187.8892,33.0208,189.6757,32.1903,191.5042,31.4544,193.3124,30.6728,195.1593,29.9784,196.88,29" style="stroke:#383838;stroke-width:1.0;"/><text fill="#000000" font-family="sans-serif" font-size="13" lengthAdjust="spacing" textLength="33" x="133" y="25.5684">HTTP</text><!--MD5=[26f3db148b030bef261d7209bbca9f72]
link client2 to server--><path d="M283.01,108.18 L283.017,108.2732 L286.0579,107.7672 L289.1398,107.8074 L292.2083,107.6697 L295.2331,106.9472 L298.3184,107.0342 L298.3152,106.9998 L301.5358,106.5374 L304.7729,106.2484 L308.0215,106.0798 L311.2306,105.496 L314.495,105.4937 L314.5246,105.738 L317.7476,104.8172 L321.057,104.6096 L324.377,104.4889 L327.6357,103.862 L330.9266,103.5014 L330.9312,103.5314 L334.1391,102.9871 L337.3681,102.5792 L340.587,102.1056 L343.8253,101.7575 L347,101 L347.0586,101.2924 L349.5381,100.7993 L351.9797,100.1175 L354.4767,99.7118 L356.9763,99.319 L359.3937,98.5163 L359.3191,98.2045 L361.9592,98.2123 L364.3536,97.1936 L366.9347,96.9552 L369.3235,95.9133 L371.87,95.53 " fill="none" style="stroke:#383838;stroke-width:1.0;"/><polygon fill="#383838" points="376.93,94.21,376.9412,94.2792,374.9635,93.7584,373.0516,93.643,371.1182,93.3956,369.1144,92.7141,367.2081,92.6336,367.1951,92.6112,368.1138,93.0807,369.0984,93.663,370.1287,94.3237,371.0014,94.7142,372.0948,95.4832,372.2542,95.5761,371.3434,96.3547,370.898,97.4046,370.5094,98.4877,369.7904,99.3781,369.2452,100.3699,369.2594,100.3876,370.7755,99.1296,372.3563,97.9523,373.9059,96.7361,375.5151,95.5943,376.93,94.21" style="stroke:#383838;stroke-width:1.0;"/><text fill="#000000" font-family="sans-serif" font-size="13" lengthAdjust="spacing" textLength="32" x="314" y="97.5684">gRPC</text><!--MD5=[fa208d49c5464163e8b8f842ccef8282]
link gateway to server--><path d="M283.16,41.69 L283.2408,41.9583 L292.8373,44.1244 L302.9077,47.8634 L312.8237,51.0903 L322.2323,52.6326 L332.3134,56.4075 L342.016,58.9255 L351.8692,61.9437 L361.8271,65.3097 L371.69,68.36 " fill="none" style="stroke:#383838;stroke-width:1.0;"/><polygon fill="#383838" points="376.7,69.86,376.7457,69.9131,375.1174,68.4698,373.7571,67.3378,372.3096,66.1043,370.575,64.5377,369.2377,63.4323,369.2149,63.4201,369.6475,64.362,370.1951,65.3656,370.8228,66.4122,371.1748,67.3109,371.9128,68.4167,372.0001,68.5793,370.8166,68.7666,369.8879,69.4287,368.9903,70.1486,367.9118,70.5316,366.9285,71.0918,366.9313,71.1144,368.8814,70.8349,370.8445,70.6581,372.8014,70.4318,374.7701,70.3001,376.7,69.86" style="stroke:#383838;stroke-width:1.0;"/><text fill="#000000" font-family="sans-serif" font-size="13" lengthAdjust="spacing" textLength="32" x="314" y="46.5684">gRPC</text><!--MD5=[7c341e42bb8117764a2133b812badaea]
@startuml step3
skinparam monochrome true
skinparam handwritten true

left to right direction

node client1
node client2
cloud gateway
node server

client1- ->gateway : HTTP
client2- ->server : gRPC
gateway- ->server: gRPC

@enduml

PlantUML version 1.2021.16(Thu Dec 09 01:25:22 CST 2021)
(GPL source distribution)
Java Runtime: OpenJDK Runtime Environment
JVM: OpenJDK 64-Bit Server VM
Default Encoding: UTF-8
Language: zh
Country: CN
--></g></svg>