<?xml version="1.0" encoding="UTF-8" standalone="no"?><svg xmlns="http://www.w3.org/2000/svg" xmlns:xlink="http://www.w3.org/1999/xlink" contentScriptType="application/ecmascript" contentStyleType="text/css" height="255px" preserveAspectRatio="none" style="width:322px;height:255px;background:#FFFFFF;" version="1.1" viewBox="0 0 322 255" width="322px" zoomAndPan="magnify"><defs><filter height="300%" id="f1hf61vv9u3d9v" width="300%" x="-1" y="-1"><feGaussianBlur result="blurOut" stdDeviation="2.0"/><feColorMatrix in="blurOut" result="blurOut2" type="matrix" values="0 0 0 0 0 0 0 0 0 0 0 0 0 0 0 0 0 0 .4 0"/><feOffset dx="4.0" dy="4.0" in="blurOut2" result="blurOut3"/><feBlend in="SourceGraphic" in2="blurOut3" mode="normal"/></filter></defs><g><polygon fill="#FFFFFF" filter="url(#f1hf61vv9u3d9v)" points="7,7,7,7.2102,16.8333,6.5857,26.6667,7.1933,36.5,7.3997,46.3333,6.2866,56.1667,6.9223,66,6.5735,75.8333,6.6165,85.6667,6.9318,95.5,6.3086,105.3333,7.5536,115.1667,6.3697,125,7,124.8022,7,125.4319,16.7778,124.9142,26.5556,125.0682,36.3333,124.9681,46.1111,125.1785,55.8889,125.2391,65.6667,125.5857,75.4444,125.6711,85.2222,125.6793,95,125.2546,104.7778,125.4636,114.5556,125.7022,124.3333,124.2788,134.1111,125.6785,143.8889,124.7035,153.6667,125.5338,163.4444,124.505,173.2222,125,183,125,182.9315,115.1667,183.7416,105.3333,182.9513,95.5,183.1053,85.6667,183.3386,75.8333,183.4162,66,182.9961,56.1667,183.2872,46.3333,182.4276,36.5,183.2844,26.6667,183.5482,16.8333,183.4445,7,183,7.613,183,6.5169,173.2222,6.3478,163.4444,6.3786,153.6667,6.9411,143.8889,6.8035,134.1111,7.6814,124.3333,6.8253,114.5556,6.6569,104.7778,7.2283,95,6.3332,85.2222,6.4809,75.4444,7.649,65.6667,7.4357,55.8889,7.7345,46.1111,6.6782,36.3333,7.3192,26.5556,7.5904,16.7778,7,7" style="stroke:#000000;stroke-width:1.5;"/><path d="M7,11 L7,11.2802 L16.8333,10.4476 L26.6667,11.2577 L36.5,11.5329 L46.3333,10.0488 L56.1667,10.8964 L66,10.4313 L75.8333,10.4887 L85.6667,10.9091 L95.5,10.0782 L105.3333,11.7382 L115.1667,10.1596 L125,11 " fill="#FFFFFF" style="stroke:#000000;stroke-width:1.5;"/><polygon fill="#FFFFFF" filter="url(#f1hf61vv9u3d9v)" points="192,53,192,53.2102,201.8333,52.5857,211.6667,53.1933,221.5,53.3997,231.3333,52.2866,241.1667,52.9223,251,52.5735,260.8333,52.6165,270.6667,52.9318,280.5,52.3086,290.3333,53.5536,300.1667,52.3697,310,53,309.8022,53,310.4319,62.7778,309.9142,72.5556,310.0682,82.3333,309.9681,92.1111,310.1785,101.8889,310.2391,111.6667,310.5857,121.4444,310.6711,131.2222,310.6793,141,310.2546,150.7778,310.4636,160.5556,310.7022,170.3333,309.2788,180.1111,310.6785,189.8889,309.7035,199.6667,310.5338,209.4444,309.505,219.2222,310,229,310,228.9315,300.1667,229.7416,290.3333,228.9513,280.5,229.1053,270.6667,229.3386,260.8333,229.4162,251,228.9961,241.1667,229.2872,231.3333,228.4276,221.5,229.2844,211.6667,229.5482,201.8333,229.4445,192,229,192.613,229,191.5169,219.2222,191.3478,209.4444,191.3786,199.6667,191.9411,189.8889,191.8035,180.1111,192.6814,170.3333,191.8253,160.5556,191.6569,150.7778,192.2283,141,191.3332,131.2222,191.4809,121.4444,192.649,111.6667,192.4357,101.8889,192.7345,92.1111,191.6782,82.3333,192.3192,72.5556,192.5904,62.7778,192,53" style="stroke:#000000;stroke-width:1.5;"/><path d="M192,57 L192,57.2802 L201.8333,56.4476 L211.6667,57.2577 L221.5,57.5329 L231.3333,56.0488 L241.1667,56.8964 L251,56.4313 L260.8333,56.4887 L270.6667,56.9091 L280.5,56.0782 L290.3333,57.7382 L300.1667,56.1596 L310,57 " fill="#FFFFFF" style="stroke:#000000;stroke-width:1.5;"/><!--MD5=[8114dbb7027f683df91a35cf885956a2]
entity client2--><polygon fill="#F8F8F8" filter="url(#f1hf61vv9u3d9v)" points="23,131,23.0495,131.0495,24.9023,128.9023,27.0456,127.0456,29.0942,125.0942,30.8319,122.8319,33,121,33,120.9223,42.5,120.5735,52,120.6165,61.5,120.9318,71,120.3086,80.5,121.5536,90,120.3697,99.5,120.8022,109,121,109.144,121,108.9714,128.2977,109.0227,135.5953,108.9894,142.893,109.0595,150.1906,109,157.4883,109.0564,157.5446,107.138,159.6263,105.1582,161.6465,103.1601,163.6484,101.06,165.5483,99,167.4883,99,167.9519,89.5,168.1905,80,166.7671,70.5,168.1668,61,167.1918,51.5,168.0221,42,166.9933,32.5,167.4198,23,167.4883,23.2472,167.4883,22.9838,160.1906,23.0351,152.893,23.1129,145.5953,23.1387,138.2977,23,131" style="stroke:#000000;stroke-width:1.5;"/><path d="M99,131 L99.0661,131.0661 L100.8698,128.8698 L103.0607,127.0607 L105.1256,125.1256 L106.7758,122.7758 L109,121 " fill="#F8F8F8" style="stroke:#000000;stroke-width:1.5;"/><path d="M23,131 L23,131.2802 L32.5,130.4476 L42,131.2577 L51.5,131.5329 L61,130.0488 L70.5,130.8964 L80,130.4313 L89.5,130.4887 L99,131 " fill="#F8F8F8" style="stroke:#000000;stroke-width:1.5;"/><path d="M99,131 L99.0934,131 L98.8159,138.2977 L99.0859,145.5953 L99.1776,152.893 L98.6829,160.1906 L99,167.4883 " fill="#F8F8F8" style="stroke:#000000;stroke-width:1.5;"/><text fill="#000000" font-family="sans-serif" font-size="14" lengthAdjust="spacing" textLength="46" x="38" y="154.5352">client2</text><!--MD5=[97db3ed258f199931cb7ec9b00ff5adb]
entity SDK--><polygon fill="#F8F8F8" filter="url(#f1hf61vv9u3d9v)" points="32.5,33,32.5495,33.0495,34.4023,30.9023,36.5456,29.0456,38.5942,27.0942,40.3319,24.8319,42.5,23,42.5,22.9223,52,22.5735,61.5,22.6165,71,22.9318,80.5,22.3086,90,23.5536,99.5,23,99.2899,23,99.4341,30.2977,99.644,37.5953,99.4714,44.893,99.5227,52.1906,99.5,59.4883,99.4925,59.4808,97.5421,61.5304,95.5564,63.5446,93.638,65.6263,91.6582,67.6465,89.5,69.4883,89.5,70.1675,80,69.7429,70.5,69.9519,61,70.1905,51.5,68.7671,42,70.1668,32.5,69.4883,32.4012,69.4883,32.6779,62.1906,32.335,54.893,32.4772,47.5953,32.7472,40.2977,32.5,33" style="stroke:#000000;stroke-width:1.5;"/><path d="M89.5,33 L89.5661,33.0661 L91.3698,30.8698 L93.5607,29.0607 L95.6256,27.1256 L97.2758,24.7758 L99.5,23 " fill="#F8F8F8" style="stroke:#000000;stroke-width:1.5;"/><path d="M32.5,33 L32.5,33.2802 L42,32.4476 L51.5,33.2577 L61,33.5329 L70.5,32.0488 L80,32.8964 L89.5,33 " fill="#F8F8F8" style="stroke:#000000;stroke-width:1.5;"/><path d="M89.5,33 L89.5934,33 L89.3159,40.2977 L89.5859,47.5953 L89.6776,54.893 L89.1829,62.1906 L89.5,69.4883 " fill="#F8F8F8" style="stroke:#000000;stroke-width:1.5;"/><text fill="#000000" font-family="sans-serif" font-size="14" lengthAdjust="spacing" textLength="27" x="47.5" y="56.5352">SDK</text><!--MD5=[7b30460008fc71f9986330c33ee2d290]
entity gateway--><path d="M217.4368,175.5539 L217.4368,175.5539 L217.4436,175.647 L219.6231,175.2084 L221.8427,175.3159 L224.0493,175.2456 L226.2128,174.5904 L228.4359,174.7448 L228.4359,174.7448 L228.4329,174.7104 L230.9631,174.3344 L233.5084,174.1319 L236.0641,174.05 L238.5837,173.5525 L241.154,173.637 L241.154,173.637 L241.1604,173.883 L243.4857,173.4172 L245.8296,173.6696 L248.1757,174.0096 L250.5087,173.8398 L252.8486,173.9381 L252.8486,173.9381 L252.8496,173.9684 L254.8219,173.9911 L256.7989,174.1518 L258.7736,174.2459 L260.7526,174.4671 L262.7176,174.2741 L262.7176,174.2741 L262.7226,174.5723 L265.2016,174.6175 L267.6773,174.4704 L270.1578,174.6048 L272.6385,174.7524 L275.1122,174.4819 L275.1122,174.4819 L275.0832,174.1627 L277.5167,174.9986 L279.8546,174.7834 L282.2652,175.3673 L284.6009,175.1282 L286.998,175.5637 L286.998,175.5637 L286.97,175.5518 L288.5556,178.6422 L289.4866,181.4543 L290.8038,184.4306 L292.1535,187.4207 L293.2692,190.3114 L293.2692,190.3114 L293.4422,190.3769 L292.0835,193.4384 L291.0205,196.6118 L289.4792,199.6041 L288.6513,202.8666 L287.3491,205.9494 L287.3491,205.9494 L287.4107,206.1852 L285.0462,206.7559 L282.7123,207.4436 L280.2362,207.5876 L277.8644,208.1301 L275.5849,209.0258 L275.5849,209.0258 L275.5175,208.758 L273.0252,209.6425 L270.457,210.2253 L267.9988,211.2458 L265.3527,211.5189 L262.8184,212.2363 L262.8184,212.2363 L262.7889,212.0867 L260.5386,212.7879 L258.1626,212.8496 L255.876,213.3662 L253.6769,214.3276 L251.3219,214.4967 L251.3219,214.4967 L251.3866,214.6792 L249.3695,214.0735 L247.1511,212.9002 L245.1847,212.4379 L243.1634,211.8206 L241.0142,210.8424 L241.0142,210.8424 L240.9864,210.6343 L238.3412,210.444 L235.687,210.1856 L233.0506,210.061 L230.3447,209.4159 L227.6776,209.0616 L227.6776,209.0616 L227.7101,209.2646 L225.6261,208.4961 L223.6049,208.1195 L221.6754,208.3153 L219.577,207.4573 L217.6149,207.4495 L217.6149,207.4495 L217.8149,207.5552 L215.9336,204.1568 L213.9847,200.7227 L212.1885,197.3693 L210.7453,194.2024 L208.8025,190.7716 L208.8025,190.7716 L208.6868,190.7059 L210.7582,187.8578 L212.0426,184.5633 L214.2218,181.7764 L215.8971,178.7036 L217.4368,175.5539 " fill="#F8F8F8" filter="url(#f1hf61vv9u3d9v)" style="stroke:#000000;stroke-width:1.5;"/><text fill="#000000" font-family="sans-serif" font-size="14" lengthAdjust="spacing" textLength="56" x="223" y="195.5352">gateway</text><!--MD5=[dd82451e1dd92fe3da01853750f49ff6]
entity server--><polygon fill="#F8F8F8" filter="url(#f1hf61vv9u3d9v)" points="210,79,210.0495,79.0495,211.9023,76.9023,214.0456,75.0456,216.0942,73.0942,217.8319,70.8319,220,69,220,68.9223,230.2857,68.5735,240.5714,68.6165,250.8571,68.9318,261.1429,68.3086,271.4286,69.5536,281.7143,68.3697,292,69,291.9341,69,292.144,76.2977,291.9714,83.5953,292.0227,90.893,291.9894,98.1906,292,105.4883,292.0421,105.5304,290.0564,107.5446,288.138,109.6263,286.1582,111.6465,284.1601,113.6484,282,115.4883,282,115.7429,271.7143,115.9519,261.4286,116.1905,251.1429,114.7671,240.8571,116.1668,230.5714,115.1918,220.2857,116.0221,210,115.4883,209.835,115.4883,209.9772,108.1906,210.2472,100.893,209.9838,93.5953,210.0351,86.2977,210,79" style="stroke:#000000;stroke-width:1.5;"/><path d="M282,79 L282.0661,79.0661 L283.8698,76.8698 L286.0607,75.0607 L288.1256,73.1256 L289.7758,70.7758 L292,69 " fill="#F8F8F8" style="stroke:#000000;stroke-width:1.5;"/><path d="M210,79 L210,79.2802 L220.2857,78.4476 L230.5714,79.2577 L240.8571,79.5329 L251.1429,78.0488 L261.4286,78.8964 L271.7143,78.4313 L282,79 " fill="#F8F8F8" style="stroke:#000000;stroke-width:1.5;"/><path d="M282,79 L282.0934,79 L281.8159,86.2977 L282.0859,93.5953 L282.1776,100.893 L281.6829,108.1906 L282,115.4883 " fill="#F8F8F8" style="stroke:#000000;stroke-width:1.5;"/><text fill="#000000" font-family="sans-serif" font-size="14" lengthAdjust="spacing" textLength="42" x="225" y="102.5352">server</text><!--MD5=[93332a8572591d97ac3d7d93f487262b]
entity client1--><polygon fill="#F8F8F8" filter="url(#f1hf61vv9u3d9v)" points="23,212,23.0495,212.0495,24.9023,209.9023,27.0456,208.0456,29.0942,206.0942,30.8319,203.8319,33,202,33,201.9223,42.5,201.5735,52,201.6165,61.5,201.9318,71,201.3086,80.5,202.5536,90,201.3697,99.5,201.8022,109,202,109.144,202,108.9714,209.2977,109.0227,216.5953,108.9894,223.893,109.0595,231.1906,109,238.4883,109.0564,238.5446,107.138,240.6263,105.1582,242.6465,103.1601,244.6484,101.06,246.5483,99,248.4883,99,248.9519,89.5,249.1905,80,247.7671,70.5,249.1668,61,248.1918,51.5,249.0221,42,247.9933,32.5,248.4198,23,248.4883,23.2472,248.4883,22.9838,241.1906,23.0351,233.893,23.1129,226.5953,23.1387,219.2977,23,212" style="stroke:#000000;stroke-width:1.5;"/><path d="M99,212 L99.0661,212.0661 L100.8698,209.8698 L103.0607,208.0607 L105.1256,206.1256 L106.7758,203.7758 L109,202 " fill="#F8F8F8" style="stroke:#000000;stroke-width:1.5;"/><path d="M23,212 L23,212.2802 L32.5,211.4476 L42,212.2577 L51.5,212.5329 L61,211.0488 L70.5,211.8964 L80,211.4313 L89.5,211.4887 L99,212 " fill="#F8F8F8" style="stroke:#000000;stroke-width:1.5;"/><path d="M99,212 L99.0934,212 L98.8159,219.2977 L99.0859,226.5953 L99.1776,233.893 L98.6829,241.1906 L99,248.4883 " fill="#F8F8F8" style="stroke:#000000;stroke-width:1.5;"/><text fill="#000000" font-family="sans-serif" font-size="14" lengthAdjust="spacing" textLength="46" x="38" y="235.5352">client1</text><!--MD5=[5bd865bcb37d33a1020497a953a9ea07]
link client1 to gateway--><path d="M109.03,224.03 L109.0362,224.1232 L112.2181,223.6333 L115.4365,223.6898 L118.6429,223.5683 L121.8104,222.8618 L125.0319,222.9652 L125.0286,222.9308 L128.404,222.4527 L131.7959,222.1479 L135.1994,221.9637 L138.5632,221.3641 L141.9825,221.3463 L142.0149,221.5902 L145.389,220.6117 L148.8577,220.3453 L152.3379,220.1658 L155.751,219.4808 L159.1994,219.0617 L159.2048,219.0916 L162.557,218.4354 L165.9339,217.9151 L169.2988,217.3292 L172.6865,216.8684 L176,216 L176.0718,216.2895 L178.7752,215.6223 L181.4323,214.7683 L184.1571,214.1877 L186.8852,213.6199 L189.5125,212.6463 L189.4188,212.3397 L192.3002,212.1094 L194.873,210.8697 L197.6804,210.3974 L200.2462,209.1349 L203.01,208.52 " fill="none" style="stroke:#383838;stroke-width:1.0;"/><polygon fill="#383838" points="207.88,206.88,207.8865,206.9498,205.9059,206.5598,203.9634,206.5788,202.0085,206.4647,200.0128,205.9126,198.0736,205.9667,198.0621,205.9435,199.0242,206.3416,200.0443,206.8568,201.1047,207.4533,202.0263,207.7694,203.1423,208.4783,203.3077,208.5602,202.4518,209.3987,202.0786,210.4765,201.7644,211.5834,201.1075,212.5206,200.6308,213.547,200.6462,213.5637,202.0734,212.2058,203.5708,210.924,205.0343,209.6055,206.5623,208.3571,207.88,206.88" style="stroke:#383838;stroke-width:1.0;"/><text fill="#000000" font-family="sans-serif" font-size="13" lengthAdjust="spacing" textLength="33" x="142" y="212.5684">HTTP</text><!--MD5=[b9160fd2fc1ca0a1af7a01acfc3d81c3]
link client2 to SDK--><path d="M66,120.78 L66.2802,120.78 L65.4476,111.492 L66.2577,102.204 L66.5329,92.916 L65.0488,83.628 L66,74.34 " fill="none" style="stroke:#383838;stroke-width:1.0;"/><polygon fill="#383838" points="66,69.06,66.064,69.0885,65.0738,70.8039,64.4589,72.6862,63.7217,74.5141,62.5827,76.1634,62,78.06,61.9817,78.0417,62.6995,77.1595,63.5096,76.3696,64.3839,75.6439,65.037,74.697,66,74.06,66.1305,74.1905,66.6514,74.7114,67.5534,75.6134,68.5018,76.5618,69.1798,77.2398,70,78.06,70.0208,78.0692,69.1903,76.2557,68.4544,74.4842,67.6728,72.6924,66.9784,70.9393,66,69.06" style="stroke:#383838;stroke-width:1.0;"/><text fill="#000000" font-family="sans-serif" font-size="13" lengthAdjust="spacing" textLength="91" x="9" y="100.0684">gRPC interface</text><!--MD5=[20bb371261ba303f2213e80377bd67e7]
link SDK to gateway--><path d="M96.4,69.14 L96.5733,69.3602 L104.0704,75.0098 L112.5834,81.9505 L120.7655,88.4708 L127.8598,93.6085 L136.3959,100.5786 L144.1204,106.5171 L152.1678,112.8661 L160.4398,119.5006 L167.938,125.1515 L176.9765,132.7601 L184.0123,137.8236 L192.3809,144.5808 L200.9121,151.5446 L208.4973,157.3061 L216.58,163.7 " fill="none" style="stroke:#383838;stroke-width:1.0;"/><polygon fill="#383838" points="220.67,166.92,220.7319,166.9528,219.6265,165.1144,218.8842,163.4682,218.0236,161.7594,216.7742,159.8448,216.063,158.2151,216.0373,158.212,216.0569,159.3214,216.2061,160.4464,216.4454,161.5822,216.3741,162.6807,216.7379,163.8315,216.7599,164.0148,215.5896,163.7579,214.4835,164.036,213.3852,164.3794,212.2413,164.343,211.1215,164.5064,211.127,164.5285,213.0286,164.9788,214.9555,165.5295,216.8701,166.0318,218.8081,166.6266,220.67,166.92" style="stroke:#383838;stroke-width:1.0;"/><text fill="#000000" font-family="sans-serif" font-size="13" lengthAdjust="spacing" textLength="33" x="142" y="102.5684">HTTP</text><!--MD5=[fa208d49c5464163e8b8f842ccef8282]
link gateway to server--><path d="M251,166.78 L251.2802,166.78 L250.4476,157.492 L251.2577,148.204 L251.5329,138.916 L250.0488,129.628 L251,120.34 " fill="none" style="stroke:#383838;stroke-width:1.0;"/><polygon fill="#383838" points="251,115.06,251.064,115.0885,250.0738,116.8039,249.4589,118.6862,248.7217,120.5141,247.5827,122.1634,247,124.06,246.9817,124.0417,247.6995,123.1595,248.5096,122.3696,249.3839,121.6439,250.037,120.697,251,120.06,251.1305,120.1905,251.6514,120.7114,252.5534,121.6134,253.5018,122.5618,254.1798,123.2398,255,124.06,255.0208,124.0692,254.1903,122.2557,253.4544,120.4842,252.6728,118.6924,251.9784,116.9393,251,115.06" style="stroke:#383838;stroke-width:1.0;"/><text fill="#000000" font-family="sans-serif" font-size="13" lengthAdjust="spacing" textLength="32" x="223.5" y="146.0684">gRPC</text><!--MD5=[4592665f476676d80ec1852d8716fc7b]
@startuml step2
skinparam monochrome true
skinparam handwritten true

left to right direction

node client1
card {
  node client2
  node SDK
}
card {
  cloud gateway
  node server
}
client1- ->gateway : HTTP
client2->SDK: gRPC interface
SDK- ->gateway : HTTP
gateway->server: gRPC

@enduml

PlantUML version 1.2021.16(Thu Dec 09 01:25:22 CST 2021)
(GPL source distribution)
Java Runtime: OpenJDK Runtime Environment
JVM: OpenJDK 64-Bit Server VM
Default Encoding: UTF-8
Language: zh
Country: CN
--></g></svg>