<?xml version="1.0" encoding="UTF-8" standalone="no"?><svg xmlns="http://www.w3.org/2000/svg" xmlns:xlink="http://www.w3.org/1999/xlink" contentScriptType="application/ecmascript" contentStyleType="text/css" height="140px" preserveAspectRatio="none" style="width:296px;height:140px;background:#FFFFFF;" version="1.1" viewBox="0 0 296 140" width="296px" zoomAndPan="magnify"><defs><filter height="300%" id="f1j4zx9bl9b35a" width="300%" x="-1" y="-1"><feGaussianBlur result="blurOut" stdDeviation="2.0"/><feColorMatrix in="blurOut" result="blurOut2" type="matrix" values="0 0 0 0 0 0 0 0 0 0 0 0 0 0 0 0 0 0 .4 0"/><feOffset dx="4.0" dy="4.0" in="blurOut2" result="blurOut3"/><feBlend in="SourceGraphic" in2="blurOut3" mode="normal"/></filter></defs><g><!--MD5=[93332a8572591d97ac3d7d93f487262b]
entity client1--><polygon fill="#F8F8F8" filter="url(#f1j4zx9bl9b35a)" points="16,16,16.0495,16.0495,17.9023,13.9023,20.0456,12.0456,22.0942,10.0942,23.8319,7.8319,26,6,26,5.9223,35.5,5.5735,45,5.6165,54.5,5.9318,64,5.3086,73.5,6.5536,83,5.3697,92.5,5.8022,102,6,102.144,6,101.9714,13.2977,102.0227,20.5953,101.9894,27.893,102.0595,35.1906,102,42.4883,102.0564,42.5446,100.138,44.6263,98.1582,46.6465,96.1601,48.6484,94.06,50.5483,92,52.4883,92,52.9519,82.5,53.1905,73,51.7671,63.5,53.1668,54,52.1918,44.5,53.0221,35,51.9933,25.5,52.4198,16,52.4883,16.2472,52.4883,15.9838,45.1906,16.0351,37.893,16.1129,30.5953,16.1387,23.2977,16,16" style="stroke:#000000;stroke-width:1.5;"/><path d="M92,16 L92.0661,16.0661 L93.8698,13.8698 L96.0607,12.0607 L98.1256,10.1256 L99.7758,7.7758 L102,6 " fill="#F8F8F8" style="stroke:#000000;stroke-width:1.5;"/><path d="M16,16 L16,16.2802 L25.5,15.4476 L35,16.2577 L44.5,16.5329 L54,15.0488 L63.5,15.8964 L73,15.4313 L82.5,15.4887 L92,16 " fill="#F8F8F8" style="stroke:#000000;stroke-width:1.5;"/><path d="M92,16 L92.0934,16 L91.8159,23.2977 L92.0859,30.5953 L92.1776,37.893 L91.6829,45.1906 L92,52.4883 " fill="#F8F8F8" style="stroke:#000000;stroke-width:1.5;"/><text fill="#000000" font-family="sans-serif" font-size="14" lengthAdjust="spacing" textLength="46" x="31" y="39.5352">client1</text><!--MD5=[8114dbb7027f683df91a35cf885956a2]
entity client2--><polygon fill="#F8F8F8" filter="url(#f1j4zx9bl9b35a)" points="16,97,16.0495,97.0495,17.9023,94.9023,20.0456,93.0456,22.0942,91.0942,23.8319,88.8319,26,87,26,86.9223,35.5,86.5735,45,86.6165,54.5,86.9318,64,86.3086,73.5,87.5536,83,86.3697,92.5,86.8022,102,87,102.144,87,101.9714,94.2977,102.0227,101.5953,101.9894,108.893,102.0595,116.1906,102,123.4883,102.0564,123.5446,100.138,125.6263,98.1582,127.6465,96.1601,129.6484,94.06,131.5483,92,133.4883,92,133.9519,82.5,134.1905,73,132.7671,63.5,134.1668,54,133.1918,44.5,134.0221,35,132.9933,25.5,133.4198,16,133.4883,16.2472,133.4883,15.9838,126.1906,16.0351,118.893,16.1129,111.5953,16.1387,104.2977,16,97" style="stroke:#000000;stroke-width:1.5;"/><path d="M92,97 L92.0661,97.0661 L93.8698,94.8698 L96.0607,93.0607 L98.1256,91.1256 L99.7758,88.7758 L102,87 " fill="#F8F8F8" style="stroke:#000000;stroke-width:1.5;"/><path d="M16,97 L16,97.2802 L25.5,96.4476 L35,97.2577 L44.5,97.5329 L54,96.0488 L63.5,96.8964 L73,96.4313 L82.5,96.4887 L92,97 " fill="#F8F8F8" style="stroke:#000000;stroke-width:1.5;"/><path d="M92,97 L92.0934,97 L91.8159,104.2977 L92.0859,111.5953 L92.1776,118.893 L91.6829,126.1906 L92,133.4883 " fill="#F8F8F8" style="stroke:#000000;stroke-width:1.5;"/><text fill="#000000" font-family="sans-serif" font-size="14" lengthAdjust="spacing" textLength="46" x="31" y="120.5352">client2</text><!--MD5=[dd82451e1dd92fe3da01853750f49ff6]
entity server--><polygon fill="#F8F8F8" filter="url(#f1j4zx9bl9b35a)" points="197,57,197.0495,57.0495,198.9023,54.9023,201.0456,53.0456,203.0942,51.0942,204.8319,48.8319,207,47,207,46.9223,217.2857,46.5735,227.5714,46.6165,237.8571,46.9318,248.1429,46.3086,258.4286,47.5536,268.7143,46.3697,279,47,278.9341,47,279.144,54.2977,278.9714,61.5953,279.0227,68.893,278.9894,76.1906,279,83.4883,279.0421,83.5304,277.0564,85.5446,275.138,87.6263,273.1582,89.6465,271.1601,91.6484,269,93.4883,269,93.7429,258.7143,93.9519,248.4286,94.1905,238.1429,92.7671,227.8571,94.1668,217.5714,93.1918,207.2857,94.0221,197,93.4883,196.835,93.4883,196.9772,86.1906,197.2472,78.893,196.9838,71.5953,197.0351,64.2977,197,57" style="stroke:#000000;stroke-width:1.5;"/><path d="M269,57 L269.0661,57.0661 L270.8698,54.8698 L273.0607,53.0607 L275.1256,51.1256 L276.7758,48.7758 L279,47 " fill="#F8F8F8" style="stroke:#000000;stroke-width:1.5;"/><path d="M197,57 L197,57.2802 L207.2857,56.4476 L217.5714,57.2577 L227.8571,57.5329 L238.1429,56.0488 L248.4286,56.8964 L258.7143,56.4313 L269,57 " fill="#F8F8F8" style="stroke:#000000;stroke-width:1.5;"/><path d="M269,57 L269.0934,57 L268.8159,64.2977 L269.0859,71.5953 L269.1776,78.893 L268.6829,86.1906 L269,93.4883 " fill="#F8F8F8" style="stroke:#000000;stroke-width:1.5;"/><text fill="#000000" font-family="sans-serif" font-size="14" lengthAdjust="spacing" textLength="42" x="212" y="80.5352">server</text><!--MD5=[e692c4e5bf4ab6fc4b7afaa0bf4b2cbf]
link client1 to server--><path d="M102.4,38.82 L102.4632,39.093 L112.2009,40.5807 L122.3093,43.6688 L132.2969,46.2358 L141.8876,47.0889 L152.0044,50.2135 L161.825,52.0593 L171.7635,54.4141 L181.7839,57.1226 L191.73,59.51 " fill="none" style="stroke:#383838;stroke-width:1.0;"/><polygon fill="#383838" points="196.77,60.68,196.8122,60.7359,195.1139,59.3841,193.6628,58.3602,192.1312,57.2296,190.3349,55.7477,188.905,54.752,188.883,54.7383,189.3832,55.6366,189.9941,56.6041,190.6821,57.6197,191.1047,58.4696,191.899,59.5515,191.9967,59.7081,190.8279,59.9721,189.9443,60.6932,189.0955,61.4701,188.0442,61.9225,187.0994,62.5455,187.1037,62.5679,189.0315,62.162,190.9789,61.8578,192.9169,61.5045,194.8729,61.2448,196.77,60.68" style="stroke:#383838;stroke-width:1.0;"/><text fill="#000000" font-family="sans-serif" font-size="13" lengthAdjust="spacing" textLength="33" x="133" y="42.5684">HTTP</text><!--MD5=[26f3db148b030bef261d7209bbca9f72]
link client2 to server--><path d="M102.07,102.46 L102.088,102.5517 L108.4143,101.0263 L114.8461,100.0383 L121.2435,98.8753 L127.5279,97.1369 L133.9688,96.195 L133.9616,96.1612 L137.2668,95.3056 L140.6079,94.6204 L143.974,94.0535 L147.254,93.0786 L150.6545,92.6753 L150.7085,92.9154 L153.8622,91.6669 L157.1734,91.1194 L160.5039,90.6574 L163.7225,89.6979 L167,89 L167.0072,89.0295 L169.4551,88.3887 L171.9357,87.8821 L174.4006,87.3108 L176.8955,86.8629 L179.2925,86.0125 L179.3671,86.3013 L181.8536,85.6623 L184.2918,84.8371 L186.8006,84.2845 L189.3126,83.7447 L191.72,82.8 " fill="none" style="stroke:#383838;stroke-width:1.0;"/><polygon fill="#383838" points="196.78,81.44,196.7909,81.5092,194.8127,80.9976,192.8983,80.8917,190.9631,80.6537,188.9596,79.9812,187.0507,79.9101,187.0378,79.8877,187.9597,80.3522,188.9469,80.9298,189.9795,81.5861,190.8558,81.9714,191.951,82.7363,192.1108,82.8285,191.2037,83.6114,190.7634,84.6635,190.38,85.7484,189.6652,86.6422,189.1248,87.6366,189.1391,87.6542,190.6491,86.389,192.2243,85.2042,193.7681,83.9806,195.3718,82.8311,196.78,81.44" style="stroke:#383838;stroke-width:1.0;"/><text fill="#000000" font-family="sans-serif" font-size="13" lengthAdjust="spacing" textLength="33" x="133" y="85.5684">HTTP</text><!--MD5=[2417137ae30e3c2b8dc333402bb97bf8]
@startuml step1
skinparam monochrome true
skinparam handwritten true

left to right direction

node client1
node client2
node server

client1- ->server : HTTP
client2- ->server : HTTP

@enduml

PlantUML version 1.2021.16(Thu Dec 09 01:25:22 CST 2021)
(GPL source distribution)
Java Runtime: OpenJDK Runtime Environment
JVM: OpenJDK 64-Bit Server VM
Default Encoding: UTF-8
Language: zh
Country: CN
--></g></svg>