<?xml version="1.0" encoding="UTF-8" standalone="no"?><svg xmlns="http://www.w3.org/2000/svg" xmlns:xlink="http://www.w3.org/1999/xlink" contentScriptType="application/ecmascript" contentStyleType="text/css" height="140px" preserveAspectRatio="none" style="width:476px;height:140px;background:#FFFFFF;" version="1.1" viewBox="0 0 476 140" width="476px" zoomAndPan="magnify"><defs><filter height="300%" id="fsskvu7asb7fn" width="300%" x="-1" y="-1"><feGaussianBlur result="blurOut" stdDeviation="2.0"/><feColorMatrix in="blurOut" result="blurOut2" type="matrix" values="0 0 0 0 0 0 0 0 0 0 0 0 0 0 0 0 0 0 .4 0"/><feOffset dx="4.0" dy="4.0" in="blurOut2" result="blurOut3"/><feBlend in="SourceGraphic" in2="blurOut3" mode="normal"/></filter></defs><g><!--MD5=[93332a8572591d97ac3d7d93f487262b]
entity client1--><polygon fill="#F8F8F8" filter="url(#fsskvu7asb7fn)" points="16,16,16.0495,16.0495,17.9023,13.9023,20.0456,12.0456,22.0942,10.0942,23.8319,7.8319,26,6,26,5.9223,35.5,5.5735,45,5.6165,54.5,5.9318,64,5.3086,73.5,6.5536,83,5.3697,92.5,5.8022,102,6,102.144,6,101.9714,13.2977,102.0227,20.5953,101.9894,27.893,102.0595,35.1906,102,42.4883,102.0564,42.5446,100.138,44.6263,98.1582,46.6465,96.1601,48.6484,94.06,50.5483,92,52.4883,92,52.9519,82.5,53.1905,73,51.7671,63.5,53.1668,54,52.1918,44.5,53.0221,35,51.9933,25.5,52.4198,16,52.4883,16.2472,52.4883,15.9838,45.1906,16.0351,37.893,16.1129,30.5953,16.1387,23.2977,16,16" style="stroke:#000000;stroke-width:1.5;"/><path d="M92,16 L92.0661,16.0661 L93.8698,13.8698 L96.0607,12.0607 L98.1256,10.1256 L99.7758,7.7758 L102,6 " fill="#F8F8F8" style="stroke:#000000;stroke-width:1.5;"/><path d="M16,16 L16,16.2802 L25.5,15.4476 L35,16.2577 L44.5,16.5329 L54,15.0488 L63.5,15.8964 L73,15.4313 L82.5,15.4887 L92,16 " fill="#F8F8F8" style="stroke:#000000;stroke-width:1.5;"/><path d="M92,16 L92.0934,16 L91.8159,23.2977 L92.0859,30.5953 L92.1776,37.893 L91.6829,45.1906 L92,52.4883 " fill="#F8F8F8" style="stroke:#000000;stroke-width:1.5;"/><text fill="#000000" font-family="sans-serif" font-size="14" lengthAdjust="spacing" textLength="46" x="31" y="39.5352">client1</text><!--MD5=[8114dbb7027f683df91a35cf885956a2]
entity client2--><polygon fill="#F8F8F8" filter="url(#fsskvu7asb7fn)" points="16,97,16.0495,97.0495,17.9023,94.9023,20.0456,93.0456,22.0942,91.0942,23.8319,88.8319,26,87,26,86.9223,35.5,86.5735,45,86.6165,54.5,86.9318,64,86.3086,73.5,87.5536,83,86.3697,92.5,86.8022,102,87,102.144,87,101.9714,94.2977,102.0227,101.5953,101.9894,108.893,102.0595,116.1906,102,123.4883,102.0564,123.5446,100.138,125.6263,98.1582,127.6465,96.1601,129.6484,94.06,131.5483,92,133.4883,92,133.9519,82.5,134.1905,73,132.7671,63.5,134.1668,54,133.1918,44.5,134.0221,35,132.9933,25.5,133.4198,16,133.4883,16.2472,133.4883,15.9838,126.1906,16.0351,118.893,16.1129,111.5953,16.1387,104.2977,16,97" style="stroke:#000000;stroke-width:1.5;"/><path d="M92,97 L92.0661,97.0661 L93.8698,94.8698 L96.0607,93.0607 L98.1256,91.1256 L99.7758,88.7758 L102,87 " fill="#F8F8F8" style="stroke:#000000;stroke-width:1.5;"/><path d="M16,97 L16,97.2802 L25.5,96.4476 L35,97.2577 L44.5,97.5329 L54,96.0488 L63.5,96.8964 L73,96.4313 L82.5,96.4887 L92,97 " fill="#F8F8F8" style="stroke:#000000;stroke-width:1.5;"/><path d="M92,97 L92.0934,97 L91.8159,104.2977 L92.0859,111.5953 L92.1776,118.893 L91.6829,126.1906 L92,133.4883 " fill="#F8F8F8" style="stroke:#000000;stroke-width:1.5;"/><text fill="#000000" font-family="sans-serif" font-size="14" lengthAdjust="spacing" textLength="46" x="31" y="120.5352">client2</text><!--MD5=[7b30460008fc71f9986330c33ee2d290]
entity gateway--><path d="M206.4368,55.5539 L206.4368,55.5539 L206.4436,55.647 L208.6231,55.2084 L210.8427,55.3159 L213.0493,55.2456 L215.2128,54.5904 L217.4359,54.7448 L217.4359,54.7448 L217.4329,54.7104 L219.9631,54.3344 L222.5084,54.1319 L225.0641,54.05 L227.5837,53.5525 L230.154,53.637 L230.154,53.637 L230.1604,53.883 L232.4857,53.4172 L234.8296,53.6696 L237.1757,54.0096 L239.5087,53.8398 L241.8486,53.9381 L241.8486,53.9381 L241.8496,53.9684 L243.8219,53.9911 L245.7989,54.1518 L247.7736,54.2459 L249.7526,54.4671 L251.7176,54.2741 L251.7176,54.2741 L251.7226,54.5723 L254.2016,54.6175 L256.6773,54.4704 L259.1578,54.6048 L261.6385,54.7524 L264.1122,54.4819 L264.1122,54.4819 L264.0832,54.1627 L266.5167,54.9986 L268.8546,54.7834 L271.2652,55.3673 L273.6009,55.1282 L275.998,55.5637 L275.998,55.5637 L275.97,55.5518 L277.5556,58.6422 L278.4866,61.4543 L279.8038,64.4306 L281.1535,67.4207 L282.2692,70.3114 L282.2692,70.3114 L282.4422,70.3769 L281.0835,73.4384 L280.0205,76.6118 L278.4792,79.6041 L277.6513,82.8666 L276.3491,85.9494 L276.3491,85.9494 L276.4107,86.1852 L274.0462,86.7559 L271.7123,87.4436 L269.2362,87.5876 L266.8644,88.1301 L264.5849,89.0258 L264.5849,89.0258 L264.5175,88.758 L262.0252,89.6425 L259.457,90.2253 L256.9988,91.2458 L254.3527,91.5189 L251.8184,92.2363 L251.8184,92.2363 L251.7889,92.0867 L249.5386,92.7879 L247.1626,92.8496 L244.876,93.3662 L242.6769,94.3276 L240.3219,94.4967 L240.3219,94.4967 L240.3866,94.6792 L238.3695,94.0735 L236.1511,92.9002 L234.1847,92.4379 L232.1634,91.8206 L230.0142,90.8424 L230.0142,90.8424 L229.9864,90.6343 L227.3412,90.444 L224.687,90.1856 L222.0506,90.061 L219.3447,89.4159 L216.6776,89.0616 L216.6776,89.0616 L216.7101,89.2646 L214.6261,88.4961 L212.6049,88.1195 L210.6754,88.3153 L208.577,87.4573 L206.6149,87.4495 L206.6149,87.4495 L206.8149,87.5552 L204.9336,84.1568 L202.9847,80.7227 L201.1885,77.3693 L199.7453,74.2024 L197.8025,70.7716 L197.8025,70.7716 L197.6868,70.7059 L199.7582,67.8578 L201.0426,64.5633 L203.2218,61.7764 L204.8971,58.7036 L206.4368,55.5539 " fill="#F8F8F8" filter="url(#fsskvu7asb7fn)" style="stroke:#000000;stroke-width:1.5;"/><text fill="#000000" font-family="sans-serif" font-size="14" lengthAdjust="spacing" textLength="56" x="212" y="75.5352">gateway</text><!--MD5=[dd82451e1dd92fe3da01853750f49ff6]
entity server--><polygon fill="#F8F8F8" filter="url(#fsskvu7asb7fn)" points="377,57,377.0495,57.0495,378.9023,54.9023,381.0456,53.0456,383.0942,51.0942,384.8319,48.8319,387,47,387,46.9223,397.2857,46.5735,407.5714,46.6165,417.8571,46.9318,428.1429,46.3086,438.4286,47.5536,448.7143,46.3697,459,47,458.9341,47,459.144,54.2977,458.9714,61.5953,459.0227,68.893,458.9894,76.1906,459,83.4883,459.0421,83.5304,457.0564,85.5446,455.138,87.6263,453.1582,89.6465,451.1601,91.6484,449,93.4883,449,93.7429,438.7143,93.9519,428.4286,94.1905,418.1429,92.7671,407.8571,94.1668,397.5714,93.1918,387.2857,94.0221,377,93.4883,376.835,93.4883,376.9772,86.1906,377.2472,78.893,376.9838,71.5953,377.0351,64.2977,377,57" style="stroke:#000000;stroke-width:1.5;"/><path d="M449,57 L449.0661,57.0661 L450.8698,54.8698 L453.0607,53.0607 L455.1256,51.1256 L456.7758,48.7758 L459,47 " fill="#F8F8F8" style="stroke:#000000;stroke-width:1.5;"/><path d="M377,57 L377,57.2802 L387.2857,56.4476 L397.5714,57.2577 L407.8571,57.5329 L418.1429,56.0488 L428.4286,56.8964 L438.7143,56.4313 L449,57 " fill="#F8F8F8" style="stroke:#000000;stroke-width:1.5;"/><path d="M449,57 L449.0934,57 L448.8159,64.2977 L449.0859,71.5953 L449.1776,78.893 L448.6829,86.1906 L449,93.4883 " fill="#F8F8F8" style="stroke:#000000;stroke-width:1.5;"/><text fill="#000000" font-family="sans-serif" font-size="14" lengthAdjust="spacing" textLength="42" x="392" y="80.5352">server</text><!--MD5=[5bd865bcb37d33a1020497a953a9ea07]
link client1 to gateway--><path d="M102.42,38.72 L102.4826,38.9932 L112.2267,40.456 L122.3375,43.5201 L132.329,46.0628 L141.9276,46.8906 L152.0469,49.9912 L161.873,51.8124 L171.8158,54.1427 L181.8397,56.827 L191.79,59.19 " fill="none" style="stroke:#383838;stroke-width:1.0;"/><polygon fill="#383838" points="196.88,60.35,196.922,60.4061,195.2209,59.0583,193.766,58.0391,192.231,56.9129,190.4322,55.4348,188.9985,54.4439,188.9766,54.4301,189.4796,55.3266,190.0932,56.2924,190.7837,57.3065,191.2092,58.1543,192.0059,59.2351,192.104,59.3914,190.9359,59.6586,190.0544,60.3822,189.2077,61.1615,188.1577,61.6168,187.2147,62.2425,187.219,62.2648,189.1457,61.8535,191.0922,61.5439,193.0292,61.1852,194.9844,60.9201,196.88,60.35" style="stroke:#383838;stroke-width:1.0;"/><text fill="#000000" font-family="sans-serif" font-size="13" lengthAdjust="spacing" textLength="33" x="133" y="42.5684">HTTP</text><!--MD5=[e0369259ca5a92c91c612d3082420665]
link client2 to gateway--><path d="M102.06,102.39 L102.078,102.4817 L108.403,100.9573 L114.8335,99.9703 L121.2297,98.8083 L127.5129,97.0709 L133.9525,96.13 L133.9454,96.0962 L137.2518,95.2452 L140.5938,94.5646 L143.9607,94.0024 L147.242,93.032 L150.6431,92.6334 L150.6965,92.8736 L153.8538,91.6333 L157.1668,91.0943 L160.4989,90.6408 L163.7204,89.6895 L167,89 L167.007,89.0295 L169.458,88.3994 L171.9409,87.9037 L174.4084,87.3431 L176.9054,86.9062 L179.3062,86.0663 L179.379,86.3555 L181.8727,85.7318 L184.3194,84.9215 L186.8348,84.3843 L189.3534,83.8599 L191.77,82.93 " fill="none" style="stroke:#383838;stroke-width:1.0;"/><polygon fill="#383838" points="196.85,81.61,196.8615,81.6791,194.8842,81.1517,192.974,81.0294,191.042,80.7752,189.0381,80.0871,187.1337,79.9997,187.1206,79.9773,188.037,80.4504,189.0196,81.0361,190.0482,81.7001,190.9183,82.0943,192.0104,82.8663,192.1695,82.9598,191.256,83.7352,190.8069,84.7836,190.4145,85.8653,189.6924,86.7532,189.1438,87.743,189.1579,87.7608,190.6784,86.5081,192.2633,85.3364,193.8171,84.1256,195.4303,82.9894,196.85,81.61" style="stroke:#383838;stroke-width:1.0;"/><text fill="#000000" font-family="sans-serif" font-size="13" lengthAdjust="spacing" textLength="33" x="133" y="85.5684">HTTP</text><!--MD5=[fa208d49c5464163e8b8f842ccef8282]
link gateway to server--><path d="M283.16,70 L283.16,70.2802 L292.9967,69.4476 L302.8333,70.2577 L312.67,70.5329 L322.5067,69.0488 L332.3433,69.8964 L342.18,69.4313 L352.0167,69.4887 L361.8533,69.9091 L371.69,70 " fill="none" style="stroke:#383838;stroke-width:1.0;"/><polygon fill="#383838" points="376.7,70,376.7285,70.064,374.8439,69.0738,373.1262,68.4589,371.3541,67.7217,369.4034,66.5827,367.7,66,367.6817,65.9817,368.3995,66.6995,369.2096,67.5096,370.0839,68.3839,370.737,69.037,371.7,70,371.8305,70.1305,370.7514,70.6514,370.0534,71.5534,369.4018,72.5018,368.4798,73.1798,367.7,74,367.7092,74.0208,369.4957,73.1903,371.3242,72.4544,373.1324,71.6728,374.9793,70.9784,376.7,70" style="stroke:#383838;stroke-width:1.0;"/><text fill="#000000" font-family="sans-serif" font-size="13" lengthAdjust="spacing" textLength="32" x="314" y="66.5684">gRPC</text><!--MD5=[78833860e63a330c98b4637140b43a80]
@startuml step2
skinparam monochrome true
skinparam handwritten true

left to right direction

node client1
node client2
cloud gateway
node server

client1- ->gateway : HTTP
client2- ->gateway : HTTP
gateway- ->server: gRPC

@enduml

PlantUML version 1.2021.16(Thu Dec 09 01:25:22 CST 2021)
(GPL source distribution)
Java Runtime: OpenJDK Runtime Environment
JVM: OpenJDK 64-Bit Server VM
Default Encoding: UTF-8
Language: zh
Country: CN
--></g></svg>