<?xml version="1.0" encoding="UTF-8" standalone="no"?><svg xmlns="http://www.w3.org/2000/svg" xmlns:xlink="http://www.w3.org/1999/xlink" contentScriptType="application/ecmascript" contentStyleType="text/css" height="255px" preserveAspectRatio="none" style="width:305px;height:255px;background:#FFFFFF;" version="1.1" viewBox="0 0 305 255" width="305px" zoomAndPan="magnify"><defs><filter height="300%" id="f1vijfzs3664dm" width="300%" x="-1" y="-1"><feGaussianBlur result="blurOut" stdDeviation="2.0"/><feColorMatrix in="blurOut" result="blurOut2" type="matrix" values="0 0 0 0 0 0 0 0 0 0 0 0 0 0 0 0 0 0 .4 0"/><feOffset dx="4.0" dy="4.0" in="blurOut2" result="blurOut3"/><feBlend in="SourceGraphic" in2="blurOut3" mode="normal"/></filter></defs><g><polygon fill="#FFFFFF" filter="url(#f1vijfzs3664dm)" points="7,7,7,7.2102,16.8333,6.5857,26.6667,7.1933,36.5,7.3997,46.3333,6.2866,56.1667,6.9223,66,6.5735,75.8333,6.6165,85.6667,6.9318,95.5,6.3086,105.3333,7.5536,115.1667,6.3697,125,7,124.8022,7,125.4319,16.7778,124.9142,26.5556,125.0682,36.3333,124.9681,46.1111,125.1785,55.8889,125.2391,65.6667,125.5857,75.4444,125.6711,85.2222,125.6793,95,125.2546,104.7778,125.4636,114.5556,125.7022,124.3333,124.2788,134.1111,125.6785,143.8889,124.7035,153.6667,125.5338,163.4444,124.505,173.2222,125,183,125,182.9315,115.1667,183.7416,105.3333,182.9513,95.5,183.1053,85.6667,183.3386,75.8333,183.4162,66,182.9961,56.1667,183.2872,46.3333,182.4276,36.5,183.2844,26.6667,183.5482,16.8333,183.4445,7,183,7.613,183,6.5169,173.2222,6.3478,163.4444,6.3786,153.6667,6.9411,143.8889,6.8035,134.1111,7.6814,124.3333,6.8253,114.5556,6.6569,104.7778,7.2283,95,6.3332,85.2222,6.4809,75.4444,7.649,65.6667,7.4357,55.8889,7.7345,46.1111,6.6782,36.3333,7.3192,26.5556,7.5904,16.7778,7,7" style="stroke:#000000;stroke-width:1.5;"/><path d="M7,11 L7,11.2802 L16.8333,10.4476 L26.6667,11.2577 L36.5,11.5329 L46.3333,10.0488 L56.1667,10.8964 L66,10.4313 L75.8333,10.4887 L85.6667,10.9091 L95.5,10.0782 L105.3333,11.7382 L115.1667,10.1596 L125,11 " fill="#FFFFFF" style="stroke:#000000;stroke-width:1.5;"/><!--MD5=[8114dbb7027f683df91a35cf885956a2]
entity client2--><polygon fill="#F8F8F8" filter="url(#f1vijfzs3664dm)" points="23,131,23.0495,131.0495,24.9023,128.9023,27.0456,127.0456,29.0942,125.0942,30.8319,122.8319,33,121,33,120.9223,42.5,120.5735,52,120.6165,61.5,120.9318,71,120.3086,80.5,121.5536,90,120.3697,99.5,120.8022,109,121,109.144,121,108.9714,128.2977,109.0227,135.5953,108.9894,142.893,109.0595,150.1906,109,157.4883,109.0564,157.5446,107.138,159.6263,105.1582,161.6465,103.1601,163.6484,101.06,165.5483,99,167.4883,99,167.9519,89.5,168.1905,80,166.7671,70.5,168.1668,61,167.1918,51.5,168.0221,42,166.9933,32.5,167.4198,23,167.4883,23.2472,167.4883,22.9838,160.1906,23.0351,152.893,23.1129,145.5953,23.1387,138.2977,23,131" style="stroke:#000000;stroke-width:1.5;"/><path d="M99,131 L99.0661,131.0661 L100.8698,128.8698 L103.0607,127.0607 L105.1256,125.1256 L106.7758,122.7758 L109,121 " fill="#F8F8F8" style="stroke:#000000;stroke-width:1.5;"/><path d="M23,131 L23,131.2802 L32.5,130.4476 L42,131.2577 L51.5,131.5329 L61,130.0488 L70.5,130.8964 L80,130.4313 L89.5,130.4887 L99,131 " fill="#F8F8F8" style="stroke:#000000;stroke-width:1.5;"/><path d="M99,131 L99.0934,131 L98.8159,138.2977 L99.0859,145.5953 L99.1776,152.893 L98.6829,160.1906 L99,167.4883 " fill="#F8F8F8" style="stroke:#000000;stroke-width:1.5;"/><text fill="#000000" font-family="sans-serif" font-size="14" lengthAdjust="spacing" textLength="46" x="38" y="154.5352">client2</text><!--MD5=[97db3ed258f199931cb7ec9b00ff5adb]
entity SDK--><polygon fill="#F8F8F8" filter="url(#f1vijfzs3664dm)" points="32.5,33,32.5495,33.0495,34.4023,30.9023,36.5456,29.0456,38.5942,27.0942,40.3319,24.8319,42.5,23,42.5,22.9223,52,22.5735,61.5,22.6165,71,22.9318,80.5,22.3086,90,23.5536,99.5,23,99.2899,23,99.4341,30.2977,99.644,37.5953,99.4714,44.893,99.5227,52.1906,99.5,59.4883,99.4925,59.4808,97.5421,61.5304,95.5564,63.5446,93.638,65.6263,91.6582,67.6465,89.5,69.4883,89.5,70.1675,80,69.7429,70.5,69.9519,61,70.1905,51.5,68.7671,42,70.1668,32.5,69.4883,32.4012,69.4883,32.6779,62.1906,32.335,54.893,32.4772,47.5953,32.7472,40.2977,32.5,33" style="stroke:#000000;stroke-width:1.5;"/><path d="M89.5,33 L89.5661,33.0661 L91.3698,30.8698 L93.5607,29.0607 L95.6256,27.1256 L97.2758,24.7758 L99.5,23 " fill="#F8F8F8" style="stroke:#000000;stroke-width:1.5;"/><path d="M32.5,33 L32.5,33.2802 L42,32.4476 L51.5,33.2577 L61,33.5329 L70.5,32.0488 L80,32.8964 L89.5,33 " fill="#F8F8F8" style="stroke:#000000;stroke-width:1.5;"/><path d="M89.5,33 L89.5934,33 L89.3159,40.2977 L89.5859,47.5953 L89.6776,54.893 L89.1829,62.1906 L89.5,69.4883 " fill="#F8F8F8" style="stroke:#000000;stroke-width:1.5;"/><text fill="#000000" font-family="sans-serif" font-size="14" lengthAdjust="spacing" textLength="27" x="47.5" y="56.5352">SDK</text><!--MD5=[93332a8572591d97ac3d7d93f487262b]
entity client1--><polygon fill="#F8F8F8" filter="url(#f1vijfzs3664dm)" points="23,212,23.0495,212.0495,24.9023,209.9023,27.0456,208.0456,29.0942,206.0942,30.8319,203.8319,33,202,33,201.9223,42.5,201.5735,52,201.6165,61.5,201.9318,71,201.3086,80.5,202.5536,90,201.3697,99.5,201.8022,109,202,109.144,202,108.9714,209.2977,109.0227,216.5953,108.9894,223.893,109.0595,231.1906,109,238.4883,109.0564,238.5446,107.138,240.6263,105.1582,242.6465,103.1601,244.6484,101.06,246.5483,99,248.4883,99,248.9519,89.5,249.1905,80,247.7671,70.5,249.1668,61,248.1918,51.5,249.0221,42,247.9933,32.5,248.4198,23,248.4883,23.2472,248.4883,22.9838,241.1906,23.0351,233.893,23.1129,226.5953,23.1387,219.2977,23,212" style="stroke:#000000;stroke-width:1.5;"/><path d="M99,212 L99.0661,212.0661 L100.8698,209.8698 L103.0607,208.0607 L105.1256,206.1256 L106.7758,203.7758 L109,202 " fill="#F8F8F8" style="stroke:#000000;stroke-width:1.5;"/><path d="M23,212 L23,212.2802 L32.5,211.4476 L42,212.2577 L51.5,212.5329 L61,211.0488 L70.5,211.8964 L80,211.4313 L89.5,211.4887 L99,212 " fill="#F8F8F8" style="stroke:#000000;stroke-width:1.5;"/><path d="M99,212 L99.0934,212 L98.8159,219.2977 L99.0859,226.5953 L99.1776,233.893 L98.6829,241.1906 L99,248.4883 " fill="#F8F8F8" style="stroke:#000000;stroke-width:1.5;"/><text fill="#000000" font-family="sans-serif" font-size="14" lengthAdjust="spacing" textLength="46" x="38" y="235.5352">client1</text><!--MD5=[dd82451e1dd92fe3da01853750f49ff6]
entity server--><polygon fill="#F8F8F8" filter="url(#f1vijfzs3664dm)" points="206,184,206.0495,184.0495,207.9023,181.9023,210.0456,180.0456,212.0942,178.0942,213.8319,175.8319,216,174,216,173.9223,226.2857,173.5735,236.5714,173.6165,246.8571,173.9318,257.1429,173.3086,267.4286,174.5536,277.7143,173.3697,288,174,287.9341,174,288.144,181.2977,287.9714,188.5953,288.0227,195.893,287.9894,203.1906,288,210.4883,288.0421,210.5304,286.0564,212.5446,284.138,214.6263,282.1582,216.6465,280.1601,218.6484,278,220.4883,278,220.7429,267.7143,220.9519,257.4286,221.1905,247.1429,219.7671,236.8571,221.1668,226.5714,220.1918,216.2857,221.0221,206,220.4883,205.835,220.4883,205.9772,213.1906,206.2472,205.893,205.9838,198.5953,206.0351,191.2977,206,184" style="stroke:#000000;stroke-width:1.5;"/><path d="M278,184 L278.0661,184.0661 L279.8698,181.8698 L282.0607,180.0607 L284.1256,178.1256 L285.7758,175.7758 L288,174 " fill="#F8F8F8" style="stroke:#000000;stroke-width:1.5;"/><path d="M206,184 L206,184.2802 L216.2857,183.4476 L226.5714,184.2577 L236.8571,184.5329 L247.1429,183.0488 L257.4286,183.8964 L267.7143,183.4313 L278,184 " fill="#F8F8F8" style="stroke:#000000;stroke-width:1.5;"/><path d="M278,184 L278.0934,184 L277.8159,191.2977 L278.0859,198.5953 L278.1776,205.893 L277.6829,213.1906 L278,220.4883 " fill="#F8F8F8" style="stroke:#000000;stroke-width:1.5;"/><text fill="#000000" font-family="sans-serif" font-size="14" lengthAdjust="spacing" textLength="42" x="221" y="207.5352">server</text><!--MD5=[e692c4e5bf4ab6fc4b7afaa0bf4b2cbf]
link client1 to server--><path d="M109.42,218.36 L109.4633,218.6369 L119.4646,216.2298 L129.7198,215.4457 L139.8924,214.1332 L149.793,211.0825 L160.054,210.3354 L170.1121,208.2915 L180.251,206.7637 L190.446,205.5947 L200.59,204.1 " fill="none" style="stroke:#383838;stroke-width:1.0;"/><polygon fill="#383838" points="205.73,203.3,205.7482,203.3676,203.7922,202.6538,201.9431,202.3365,200.0592,201.89,198.0608,201.0189,196.2208,200.7357,196.2056,200.7147,197.0508,201.2879,197.9731,201.9666,198.9488,202.7185,199.7401,203.2178,200.7898,204.071,200.9389,204.1798,199.953,204.8609,199.4024,205.8597,198.9049,206.8973,198.0984,207.7093,197.4545,208.64,197.4668,208.6591,199.1038,207.563,200.7969,206.554,202.463,205.503,204.1807,204.532,205.73,203.3" style="stroke:#383838;stroke-width:1.0;"/><text fill="#000000" font-family="sans-serif" font-size="13" lengthAdjust="spacing" textLength="33" x="142" y="204.5684">HTTP</text><!--MD5=[b9160fd2fc1ca0a1af7a01acfc3d81c3]
link client2 to SDK--><path d="M66,120.78 L66.2802,120.78 L65.4476,111.492 L66.2577,102.204 L66.5329,92.916 L65.0488,83.628 L66,74.34 " fill="none" style="stroke:#383838;stroke-width:1.0;"/><polygon fill="#383838" points="66,69.06,66.064,69.0885,65.0738,70.8039,64.4589,72.6862,63.7217,74.5141,62.5827,76.1634,62,78.06,61.9817,78.0417,62.6995,77.1595,63.5096,76.3696,64.3839,75.6439,65.037,74.697,66,74.06,66.1305,74.1905,66.6514,74.7114,67.5534,75.6134,68.5018,76.5618,69.1798,77.2398,70,78.06,70.0208,78.0692,69.1903,76.2557,68.4544,74.4842,67.6728,72.6924,66.9784,70.9393,66,69.06" style="stroke:#383838;stroke-width:1.0;"/><text fill="#000000" font-family="sans-serif" font-size="13" lengthAdjust="spacing" textLength="91" x="9" y="100.0684">gRPC interface</text><!--MD5=[ea4fd7960f0c4af1fe3421cccb1bd91f]
link SDK to server--><path d="M94.58,69.26 L94.7607,69.4742 L101.7275,75.1684 L109.7537,82.1182 L117.4349,88.6592 L123.9816,93.8555 L132.0319,100.8339 L139.2358,106.8091 L146.7765,113.1836 L154.5514,119.8355 L161.5193,125.5311 L170.0935,133.1305 L176.5793,138.2546 L184.455,145.026 L192.5001,151.9983 L199.5588,157.8013 L207.1949,164.2889 L214.64,170.55 " fill="none" style="stroke:#383838;stroke-width:1.0;"/><polygon fill="#383838" points="218.69,173.96,218.753,173.9906,217.7049,172.128,217.0261,170.4448,216.2271,168.7032,215.0324,166.7694,214.3854,165.1016,214.3596,165.0994,214.34,166.2168,214.4505,167.3453,214.6515,168.4815,214.5407,169.5911,214.8666,170.738,214.8823,170.9219,213.7214,170.6249,212.6064,170.8648,211.497,171.1702,210.355,171.0944,209.2302,171.2192,209.2365,171.241,211.1192,171.7571,213.0307,172.3726,214.9283,172.9402,216.8524,173.5993,218.69,173.96" style="stroke:#383838;stroke-width:1.0;"/><text fill="#000000" font-family="sans-serif" font-size="13" lengthAdjust="spacing" textLength="33" x="142" y="109.5684">HTTP</text><!--MD5=[0d54822986a0ea0baba0cfc26c25e791]
@startuml step1
skinparam monochrome true
skinparam handwritten true

left to right direction

node client1
card {
  node client2
  node SDK
}
node server

client1- ->server : HTTP
client2->SDK: gRPC interface
SDK- ->server : HTTP

@enduml

PlantUML version 1.2021.16(Thu Dec 09 01:25:22 CST 2021)
(GPL source distribution)
Java Runtime: OpenJDK Runtime Environment
JVM: OpenJDK 64-Bit Server VM
Default Encoding: UTF-8
Language: zh
Country: CN
--></g></svg>